<svg width="555" height="289" viewBox="0 0 555 289" fill="none" xmlns="http://www.w3.org/2000/svg">
<g clip-path="url(#clip0_6_192)">
<path d="M535 0H20C8.9543 0 0 8.9543 0 20V269C0 280.046 8.9543 289 20 289H535C546.046 289 555 280.046 555 269V20C555 8.9543 546.046 0 535 0Z" fill="#98BDFF"/>
<path d="M555 0H0V289H555V0Z" fill="#DAE7FF"/>
<g clip-path="url(#clip1_6_192)">
<path d="M342.188 94.9114C336.251 94.9186 330.56 97.4299 326.363 101.895C322.165 106.359 319.804 112.413 319.797 118.727V209.993C319.804 216.307 322.165 222.361 326.363 226.825C330.56 231.29 336.251 233.801 342.188 233.808H541.812C547.749 233.801 553.44 231.29 557.637 226.825C561.835 222.361 564.196 216.307 564.203 209.993V118.727C564.196 112.413 561.835 106.359 557.637 101.895C553.44 97.4299 547.749 94.9186 541.812 94.9114H342.188Z" fill="white"/>
<path d="M541.812 235.72H342.188C335.775 235.712 329.627 232.999 325.092 228.176C320.558 223.353 318.007 216.814 318 209.993V118.727C318.007 111.906 320.558 105.367 325.092 100.544C329.627 95.7207 335.775 93.0077 342.188 93.0001H541.812C548.225 93.0077 554.373 95.7207 558.908 100.544C563.442 105.367 565.993 111.906 566 118.727V209.993C565.993 216.814 563.442 223.353 558.908 228.176C554.373 232.999 548.225 235.712 541.812 235.72ZM342.188 96.8229C336.728 96.8295 331.493 99.1393 327.633 103.246C323.772 107.352 321.6 112.919 321.594 118.727V209.993C321.6 215.801 323.772 221.368 327.633 225.474C331.493 229.581 336.728 231.891 342.188 231.897H541.812C547.272 231.891 552.507 229.581 556.367 225.474C560.228 221.368 562.4 215.801 562.406 209.993V118.727C562.4 112.919 560.228 107.352 556.367 103.246C552.507 99.1393 547.272 96.8295 541.812 96.8229H342.188Z" fill="#E6E6E6"/>
<path d="M442.536 113.807H347.601C345.575 113.811 343.633 114.669 342.2 116.193C340.767 117.716 339.961 119.782 339.958 121.937V167.48C339.957 167.963 339.999 168.445 340.083 168.92C340.113 169.137 340.161 169.347 340.209 169.557C340.644 171.29 341.604 172.823 342.94 173.917C344.277 175.011 345.915 175.606 347.601 175.61H442.536C442.692 175.61 442.848 175.604 442.997 175.591H443.105V175.585C443.135 175.586 443.165 175.584 443.195 175.578C443.225 175.578 443.261 175.572 443.291 175.572C443.301 175.573 443.312 175.571 443.321 175.566C443.387 175.559 443.453 175.553 443.513 175.546C443.62 175.527 443.728 175.515 443.83 175.495C443.843 175.49 443.858 175.488 443.872 175.489C443.89 175.479 443.911 175.475 443.932 175.476C443.934 175.474 443.937 175.472 443.94 175.471C443.943 175.47 443.947 175.47 443.95 175.47C444.016 175.457 444.082 175.444 444.147 175.425C444.184 175.42 444.22 175.411 444.255 175.4C444.387 175.368 444.519 175.336 444.645 175.292C444.705 175.272 444.759 175.26 444.818 175.241C444.896 175.215 444.98 175.183 445.058 175.151C445.099 175.139 445.139 175.125 445.178 175.107C445.182 175.107 445.187 175.106 445.191 175.103C445.195 175.101 445.199 175.098 445.202 175.094C445.375 175.029 445.545 174.955 445.711 174.871C445.855 174.801 445.993 174.725 446.13 174.648C446.184 174.623 446.232 174.591 446.286 174.559C446.299 174.553 446.311 174.544 446.322 174.533C446.46 174.444 446.598 174.355 446.729 174.272C446.735 174.266 446.735 174.259 446.741 174.259C446.742 174.259 446.743 174.259 446.744 174.259C446.744 174.259 446.745 174.258 446.746 174.258C446.746 174.257 446.747 174.256 446.747 174.256C446.747 174.255 446.747 174.254 446.747 174.253C446.888 174.159 447.024 174.057 447.155 173.947H447.161C447.197 173.915 447.227 173.89 447.256 173.864C447.298 173.833 447.34 173.794 447.376 173.762C447.448 173.699 447.52 173.635 447.586 173.571C447.627 173.539 447.665 173.502 447.7 173.463C447.802 173.367 447.897 173.265 447.993 173.164C448.044 173.112 448.092 173.056 448.137 172.998C448.212 172.922 448.282 172.841 448.347 172.756C448.407 172.673 448.473 172.59 448.532 172.507C448.603 172.42 448.669 172.329 448.73 172.233C448.838 172.08 448.934 171.927 449.03 171.762C449.108 171.628 449.185 171.488 449.257 171.348C449.293 171.278 449.329 171.201 449.365 171.125C449.371 171.125 449.371 171.118 449.371 171.112C449.437 170.978 449.497 170.844 449.551 170.704C449.575 170.647 449.599 170.596 449.617 170.539C449.665 170.43 449.701 170.316 449.742 170.201C449.808 169.991 449.874 169.774 449.928 169.557C449.976 169.347 450.024 169.137 450.054 168.92C450.138 168.445 450.181 167.963 450.18 167.48V121.937C450.176 119.782 449.37 117.716 447.937 116.193C446.504 114.669 444.562 113.811 442.536 113.807Z" fill="#006CFF"/>
<path opacity="0.3" d="M450.18 126.869H339.958V127.506H450.18V126.869Z" fill="white"/>
<path opacity="0.3" d="M450.18 133.877H339.958V134.514H450.18V133.877Z" fill="white"/>
<path opacity="0.3" d="M450.18 140.886H339.958V141.523H450.18V140.886Z" fill="white"/>
<path opacity="0.3" d="M450.18 147.894H339.958V148.532H450.18V147.894Z" fill="white"/>
<path opacity="0.3" d="M450.18 154.903H339.958V155.54H450.18V154.903Z" fill="white"/>
<path opacity="0.3" d="M450.18 161.912H339.958V162.549H450.18V161.912Z" fill="white"/>
<path opacity="0.3" d="M450.054 168.92C450.024 169.137 449.976 169.347 449.928 169.557H340.041C340.005 169.347 339.981 169.134 339.969 168.92H450.054Z" fill="white"/>
<g opacity="0.1">
<path d="M450.18 157.617V167.48C450.181 167.963 450.138 168.445 450.054 168.92C450.024 169.137 449.976 169.347 449.928 169.557C449.874 169.774 449.808 169.991 449.742 170.201C449.701 170.315 449.665 170.43 449.617 170.538C449.599 170.596 449.575 170.647 449.551 170.704C449.497 170.844 449.437 170.978 449.371 171.112C449.371 171.118 449.371 171.125 449.365 171.125C449.329 171.201 449.293 171.278 449.257 171.348C449.185 171.488 449.107 171.628 449.03 171.762C448.934 171.927 448.838 172.08 448.73 172.233C448.669 172.329 448.603 172.42 448.532 172.507C448.473 172.59 448.407 172.673 448.347 172.756C448.282 172.841 448.212 172.922 448.137 172.998C448.092 173.056 448.044 173.112 447.993 173.163C447.897 173.265 447.802 173.367 447.7 173.463C447.665 173.502 447.627 173.539 447.586 173.571C447.52 173.635 447.448 173.699 447.376 173.762C447.34 173.794 447.298 173.832 447.256 173.864C447.227 173.89 447.197 173.915 447.161 173.947H447.155C447.024 174.057 446.888 174.159 446.747 174.253C446.747 174.254 446.747 174.255 446.747 174.255C446.747 174.256 446.746 174.257 446.746 174.258C446.745 174.258 446.744 174.259 446.744 174.259C446.743 174.259 446.742 174.259 446.741 174.259C446.735 174.259 446.735 174.266 446.729 174.272C446.645 174.336 446.556 174.393 446.466 174.451C446.418 174.482 446.37 174.508 446.322 174.533C446.311 174.544 446.299 174.553 446.286 174.559C446.232 174.591 446.184 174.623 446.13 174.648C445.993 174.724 445.855 174.801 445.711 174.871C445.545 174.955 445.375 175.029 445.202 175.094C445.199 175.098 445.195 175.101 445.191 175.103C445.187 175.105 445.182 175.107 445.178 175.107C445.139 175.124 445.099 175.139 445.058 175.151C444.98 175.183 444.896 175.215 444.818 175.241C444.759 175.26 444.705 175.272 444.645 175.292C444.519 175.336 444.387 175.368 444.255 175.4C444.22 175.411 444.184 175.42 444.147 175.425C444.082 175.444 444.016 175.457 443.95 175.47C443.947 175.469 443.943 175.47 443.94 175.471C443.937 175.472 443.934 175.474 443.932 175.476C443.911 175.475 443.89 175.479 443.872 175.489C443.858 175.488 443.843 175.49 443.83 175.495C443.728 175.515 443.62 175.527 443.513 175.546C443.453 175.553 443.387 175.559 443.321 175.565C443.312 175.571 443.301 175.573 443.291 175.572C443.225 175.578 443.165 175.585 443.105 175.591H443.093C443.027 175.597 442.961 175.597 442.896 175.604C442.776 175.61 442.656 175.61 442.536 175.61H347.601C345.915 175.606 344.277 175.011 342.94 173.917C341.604 172.823 340.644 171.29 340.209 169.557H340.041C340.005 169.347 339.981 169.134 339.97 168.92C339.964 168.799 339.958 168.672 339.958 168.551V157.439C341.215 157.478 342.462 157.695 343.666 158.082C346.924 159.14 350.093 160.93 353.496 160.93C353.765 160.93 354.047 160.918 354.322 160.892C357.905 160.574 360.69 158.21 363.008 155.54C363.194 155.33 363.38 155.12 363.553 154.903C363.991 154.387 364.41 153.858 364.817 153.336C366.119 151.588 367.577 149.979 369.172 148.532C369.43 148.309 369.688 148.098 369.951 147.894C371.498 146.668 373.319 145.892 375.235 145.645C375.48 145.62 375.726 145.601 375.971 145.594C378.535 145.512 380.943 146.493 383.136 147.894C383.453 148.098 383.771 148.309 384.076 148.532C385.125 149.287 386.134 150.102 387.102 150.972C388.594 152.367 390.154 153.679 391.774 154.903C391.894 154.992 392.014 155.081 392.133 155.158C392.319 155.292 392.511 155.419 392.702 155.54C394.343 156.662 396.189 157.402 398.118 157.713C398.184 157.726 398.256 157.738 398.327 157.745C401.448 158.133 404.354 157.152 407.007 155.54C407.337 155.336 407.672 155.126 407.996 154.903C410.069 153.438 412.012 151.774 413.8 149.933C414.268 149.468 414.741 148.997 415.232 148.532C415.454 148.321 415.675 148.105 415.903 147.894C419.461 144.569 423.565 141.523 428.411 141.523C428.615 141.523 428.824 141.529 429.034 141.542C432.52 141.721 435.581 143.517 438.151 145.798C438.898 146.457 439.612 147.157 440.29 147.894C440.32 147.926 440.344 147.952 440.374 147.984C440.541 148.162 440.709 148.347 440.865 148.532C442.782 150.666 444.549 152.947 446.633 154.903C446.861 155.126 447.095 155.336 447.334 155.54C448.053 156.175 448.814 156.754 449.611 157.273C449.796 157.394 449.988 157.509 450.18 157.617Z" fill="black"/>
</g>
<g opacity="0.1">
<path d="M450.18 147.99V167.48C450.181 167.963 450.138 168.445 450.054 168.92C450.024 169.137 449.976 169.347 449.928 169.557C449.874 169.774 449.808 169.991 449.742 170.201C449.701 170.315 449.665 170.43 449.617 170.538C449.599 170.596 449.575 170.647 449.551 170.704C449.497 170.844 449.437 170.978 449.371 171.112C449.371 171.118 449.371 171.125 449.365 171.125C449.329 171.201 449.293 171.278 449.257 171.348C449.185 171.488 449.107 171.628 449.03 171.762C448.934 171.927 448.838 172.08 448.73 172.233C448.669 172.329 448.603 172.42 448.532 172.507C448.473 172.59 448.407 172.673 448.347 172.756C448.282 172.841 448.212 172.922 448.137 172.998C448.092 173.056 448.044 173.112 447.993 173.163C447.897 173.265 447.802 173.367 447.7 173.463C447.665 173.502 447.627 173.539 447.586 173.571C447.52 173.635 447.448 173.699 447.376 173.762C447.34 173.794 447.298 173.832 447.256 173.864C447.227 173.89 447.197 173.915 447.161 173.947H447.155C447.024 174.057 446.888 174.159 446.747 174.253C446.747 174.254 446.747 174.255 446.747 174.255C446.747 174.256 446.746 174.257 446.746 174.258C446.745 174.258 446.744 174.259 446.744 174.259C446.743 174.259 446.742 174.259 446.741 174.259C446.735 174.259 446.735 174.266 446.729 174.272C446.645 174.336 446.556 174.393 446.466 174.451C446.418 174.482 446.37 174.508 446.322 174.533C446.311 174.544 446.299 174.553 446.286 174.559C446.232 174.591 446.184 174.623 446.13 174.648C445.993 174.724 445.855 174.801 445.711 174.871C445.545 174.955 445.375 175.029 445.202 175.094C445.199 175.098 445.195 175.101 445.191 175.103C445.187 175.105 445.182 175.107 445.178 175.107C445.139 175.124 445.099 175.139 445.058 175.151C444.98 175.183 444.896 175.215 444.818 175.241C444.759 175.26 444.705 175.272 444.645 175.292C444.519 175.336 444.387 175.368 444.255 175.4C444.22 175.411 444.184 175.42 444.147 175.425C444.082 175.444 444.016 175.457 443.95 175.47C443.947 175.469 443.943 175.47 443.94 175.471C443.937 175.472 443.934 175.474 443.932 175.476C443.911 175.475 443.89 175.479 443.872 175.489C443.858 175.488 443.843 175.49 443.83 175.495C443.728 175.515 443.62 175.527 443.513 175.546C443.453 175.553 443.387 175.559 443.321 175.565C443.312 175.571 443.301 175.573 443.291 175.572C443.261 175.572 443.225 175.578 443.195 175.578C443.165 175.584 443.135 175.586 443.105 175.585C443.08 175.59 443.053 175.592 443.027 175.591H442.997C442.967 175.597 442.931 175.597 442.896 175.604C442.776 175.61 442.656 175.61 442.536 175.61H347.601C345.915 175.606 344.277 175.011 342.94 173.917C341.604 172.823 340.644 171.29 340.209 169.557C340.161 169.347 340.113 169.137 340.083 168.92C339.999 168.445 339.957 167.963 339.958 167.48V156.133C340.167 155.942 340.371 155.744 340.575 155.54C340.784 155.33 340.988 155.12 341.192 154.903C342.976 152.928 344.601 150.796 346.05 148.532C346.098 148.462 346.146 148.398 346.187 148.328C346.283 148.181 346.379 148.041 346.481 147.894C347.934 145.633 349.559 143.502 351.339 141.523C351.543 141.306 351.747 141.096 351.956 140.886C354.185 138.656 356.724 136.993 359.72 136.598C363.847 136.05 367.687 138.082 371.083 140.886C371.335 141.096 371.581 141.306 371.826 141.523C372.988 142.53 374.09 143.626 375.133 144.715C375.408 145.008 375.69 145.301 375.971 145.594C376.696 146.365 377.439 147.136 378.188 147.894C378.404 148.111 378.613 148.321 378.829 148.532C381.824 151.482 385.065 154.075 388.917 154.903C389.18 154.96 389.45 155.011 389.719 155.05C391.175 155.256 392.652 155.206 394.092 154.903C394.332 154.858 394.565 154.801 394.805 154.737C398.411 153.788 401.754 151.399 404.779 148.532C404.995 148.321 405.216 148.111 405.432 147.894C406.977 146.372 408.445 144.741 409.817 143.135C410.272 142.6 410.739 142.058 411.207 141.523C411.398 141.313 411.584 141.102 411.77 140.886C413.775 138.562 415.967 136.43 418.323 134.514C418.605 134.291 418.886 134.081 419.168 133.877C422.337 131.577 425.799 130.099 429.603 130.335C432.742 130.526 435.611 131.902 438.193 133.877C438.457 134.081 438.72 134.291 438.984 134.514C440.949 136.193 442.742 138.088 444.333 140.166C444.519 140.402 444.705 140.644 444.89 140.886C444.986 141.007 445.076 141.134 445.172 141.255L445.369 141.523C446.957 143.632 448.484 145.824 450.108 147.894L450.18 147.99Z" fill="black"/>
</g>
<g opacity="0.1">
<path d="M450.18 139.943V167.48C450.181 167.963 450.138 168.445 450.054 168.92C450.024 169.137 449.976 169.347 449.928 169.557C449.874 169.774 449.808 169.991 449.742 170.201C449.701 170.315 449.665 170.43 449.617 170.538C449.599 170.596 449.575 170.647 449.551 170.704C449.497 170.844 449.437 170.978 449.371 171.112C449.371 171.118 449.371 171.125 449.365 171.125C449.329 171.201 449.293 171.278 449.257 171.348C449.185 171.488 449.107 171.628 449.03 171.762C448.934 171.927 448.838 172.08 448.73 172.233C448.669 172.329 448.603 172.42 448.532 172.507C448.473 172.59 448.407 172.673 448.347 172.756C448.282 172.841 448.212 172.922 448.137 172.998C448.092 173.056 448.044 173.112 447.993 173.164C447.897 173.265 447.802 173.367 447.7 173.463C447.665 173.502 447.627 173.539 447.586 173.571C447.52 173.635 447.448 173.699 447.376 173.762C447.34 173.794 447.298 173.832 447.256 173.864C447.227 173.89 447.197 173.915 447.161 173.947H447.155C447.024 174.057 446.888 174.159 446.747 174.253C446.747 174.254 446.747 174.255 446.747 174.256C446.747 174.256 446.746 174.257 446.746 174.258C446.745 174.258 446.744 174.259 446.744 174.259C446.743 174.259 446.742 174.259 446.741 174.259C446.735 174.259 446.735 174.266 446.729 174.272C446.645 174.336 446.556 174.393 446.466 174.451C446.418 174.482 446.37 174.508 446.322 174.533C446.311 174.544 446.299 174.553 446.286 174.559C446.232 174.591 446.184 174.623 446.13 174.648C445.993 174.725 445.855 174.801 445.711 174.871C445.545 174.955 445.375 175.029 445.202 175.094C445.199 175.098 445.195 175.101 445.191 175.103C445.187 175.105 445.182 175.107 445.178 175.107C445.139 175.124 445.099 175.139 445.058 175.151C444.98 175.183 444.896 175.215 444.818 175.241C444.759 175.26 444.705 175.272 444.645 175.292C444.519 175.336 444.387 175.368 444.255 175.4C444.22 175.411 444.184 175.42 444.147 175.425C444.082 175.444 444.016 175.457 443.95 175.47C443.947 175.469 443.943 175.47 443.94 175.471C443.937 175.472 443.934 175.474 443.932 175.476C443.911 175.475 443.89 175.479 443.872 175.489C443.858 175.488 443.843 175.49 443.83 175.495C443.728 175.515 443.62 175.527 443.513 175.546C443.453 175.553 443.387 175.559 443.321 175.566C443.312 175.571 443.301 175.573 443.291 175.572C443.261 175.572 443.225 175.578 443.195 175.578C443.165 175.584 443.135 175.586 443.105 175.585C443.102 175.588 443.098 175.59 443.093 175.591H442.997C442.848 175.604 442.692 175.61 442.536 175.61H347.601C345.915 175.606 344.277 175.011 342.94 173.917C341.604 172.823 340.644 171.29 340.209 169.557C340.161 169.347 340.113 169.137 340.083 168.92C339.999 168.445 339.957 167.963 339.958 167.48V151.029C340.563 150.195 341.17 149.362 341.779 148.532C341.934 148.315 342.09 148.105 342.246 147.894C343.067 146.773 343.893 145.664 344.744 144.581C345.558 143.543 346.415 142.517 347.308 141.523C347.499 141.313 347.691 141.096 347.889 140.886C350.161 138.368 352.771 136.221 355.634 134.514C356.024 134.285 356.419 134.075 356.82 133.877C358.946 132.798 361.245 132.16 363.595 131.998C366.678 131.834 369.752 132.479 372.545 133.877C372.964 134.068 373.378 134.285 373.785 134.514C376.714 136.12 379.464 138.369 382.04 140.886C382.261 141.09 382.471 141.306 382.687 141.523C384.729 143.562 386.664 145.747 388.509 147.894C388.647 148.054 388.785 148.219 388.923 148.379C388.964 148.43 389.012 148.481 389.054 148.532C390.851 150.634 392.768 152.762 394.805 154.737C394.859 154.795 394.919 154.846 394.979 154.903C395.2 155.12 395.422 155.33 395.65 155.54C396.452 156.298 397.279 157.025 398.118 157.713C400.105 159.378 402.271 160.787 404.569 161.912C405.055 162.147 405.546 162.358 406.043 162.549C408.782 163.661 411.738 164.033 414.645 163.632C415.98 163.435 417.289 163.072 418.545 162.549C419.024 162.358 419.491 162.141 419.952 161.912C422.99 160.382 425.733 158.07 428.333 155.54C428.549 155.33 428.764 155.12 428.98 154.903C430.46 153.425 431.897 151.889 433.317 150.405C433.916 149.78 434.527 149.15 435.156 148.532C435.372 148.321 435.593 148.111 435.815 147.894C436.57 147.174 437.348 146.467 438.151 145.798C440.113 144.09 442.271 142.654 444.573 141.523C444.77 141.427 444.974 141.338 445.172 141.255C445.477 141.122 445.783 141.001 446.088 140.886C447.408 140.383 448.783 140.066 450.18 139.943Z" fill="black"/>
</g>
<path d="M363.619 135.789C364.612 135.789 365.416 134.933 365.416 133.877C365.416 132.822 364.612 131.966 363.619 131.966C362.627 131.966 361.822 132.822 361.822 133.877C361.822 134.933 362.627 135.789 363.619 135.789Z" fill="white"/>
<path d="M391.175 156.814C392.167 156.814 392.972 155.959 392.972 154.903C392.972 153.847 392.167 152.992 391.175 152.992C390.182 152.992 389.378 153.847 389.378 154.903C389.378 155.959 390.182 156.814 391.175 156.814Z" fill="white"/>
<path d="M428.315 142.797C429.307 142.797 430.112 141.942 430.112 140.886C430.112 139.83 429.307 138.974 428.315 138.974C427.322 138.974 426.518 139.83 426.518 140.886C426.518 141.942 427.322 142.797 428.315 142.797Z" fill="white"/>
<path d="M510.059 157.194H467.684C467.483 157.194 467.284 157.236 467.098 157.318C466.913 157.399 466.744 157.519 466.601 157.67C466.459 157.821 466.346 158 466.269 158.198C466.192 158.395 466.153 158.607 466.153 158.821C466.153 159.034 466.192 159.246 466.269 159.444C466.346 159.641 466.459 159.82 466.601 159.972C466.744 160.123 466.913 160.242 467.098 160.324C467.284 160.405 467.483 160.447 467.684 160.447H510.059C510.465 160.447 510.854 160.276 511.14 159.971C511.427 159.666 511.588 159.252 511.588 158.821C511.588 158.389 511.427 157.976 511.14 157.671C510.854 157.366 510.465 157.194 510.059 157.194Z" fill="#E6E6E6"/>
<path d="M510.059 181.821H467.684C467.279 181.821 466.89 181.992 466.603 182.297C466.316 182.602 466.155 183.016 466.155 183.447C466.155 183.878 466.316 184.292 466.603 184.597C466.89 184.902 467.279 185.073 467.684 185.073H510.059C510.465 185.073 510.854 184.902 511.14 184.597C511.427 184.292 511.588 183.878 511.588 183.447C511.588 183.016 511.427 182.602 511.14 182.297C510.854 181.992 510.465 181.821 510.059 181.821Z" fill="#E6E6E6"/>
<path d="M510.059 206.447H467.684C467.279 206.447 466.89 206.618 466.603 206.923C466.316 207.228 466.155 207.642 466.155 208.073C466.155 208.505 466.316 208.918 466.603 209.223C466.89 209.528 467.279 209.7 467.684 209.7H510.059C510.465 209.7 510.854 209.528 511.14 209.223C511.427 208.918 511.588 208.505 511.588 208.073C511.588 207.642 511.427 207.228 511.14 206.923C510.854 206.618 510.465 206.447 510.059 206.447Z" fill="#E6E6E6"/>
<path d="M535.735 163.004C537.844 163.004 539.554 161.185 539.554 158.942C539.554 156.699 537.844 154.881 535.735 154.881C533.627 154.881 531.917 156.699 531.917 158.942C531.917 161.185 533.627 163.004 535.735 163.004Z" fill="#F2F2F2"/>
<path d="M535.215 161.056C535.149 161.056 535.084 161.04 535.025 161.008C534.966 160.977 534.914 160.931 534.875 160.875L533.833 159.398C533.8 159.351 533.775 159.296 533.761 159.239C533.747 159.181 533.744 159.122 533.752 159.063C533.76 159.004 533.779 158.948 533.807 158.896C533.835 158.845 533.873 158.801 533.918 158.765C533.962 158.729 534.013 158.704 534.067 158.689C534.121 158.674 534.178 158.671 534.233 158.679C534.288 158.688 534.341 158.708 534.389 158.738C534.437 158.768 534.479 158.808 534.513 158.856L535.194 159.822L536.945 157.03C537.007 156.93 537.104 156.861 537.215 156.837C537.325 156.814 537.44 156.838 537.534 156.904C537.627 156.971 537.692 157.074 537.715 157.192C537.737 157.309 537.714 157.431 537.651 157.531L535.568 160.855C535.53 160.915 535.48 160.965 535.42 161C535.361 161.035 535.294 161.054 535.226 161.056L535.215 161.056Z" fill="white"/>
<path d="M535.735 187.63C537.844 187.63 539.554 185.812 539.554 183.569C539.554 181.326 537.844 179.507 535.735 179.507C533.627 179.507 531.917 181.326 531.917 183.569C531.917 185.812 533.627 187.63 535.735 187.63Z" fill="#F2F2F2"/>
<path d="M535.215 185.682C535.149 185.682 535.084 185.666 535.025 185.635C534.966 185.603 534.914 185.558 534.875 185.502L533.833 184.024C533.8 183.977 533.775 183.923 533.761 183.865C533.747 183.808 533.744 183.748 533.752 183.689C533.76 183.63 533.779 183.574 533.807 183.523C533.835 183.472 533.873 183.427 533.918 183.391C533.962 183.356 534.013 183.33 534.067 183.315C534.121 183.3 534.178 183.297 534.233 183.306C534.288 183.314 534.341 183.334 534.389 183.364C534.437 183.395 534.479 183.435 534.513 183.482L535.194 184.449L536.945 181.656C536.976 181.607 537.015 181.564 537.062 181.531C537.108 181.498 537.16 181.475 537.215 181.464C537.269 181.452 537.326 181.452 537.38 181.463C537.435 181.475 537.487 181.498 537.534 181.531C537.58 181.564 537.62 181.606 537.651 181.655C537.682 181.705 537.704 181.76 537.714 181.818C537.725 181.876 537.725 181.936 537.715 181.994C537.704 182.053 537.682 182.108 537.651 182.157L535.568 185.481C535.53 185.541 535.48 185.591 535.42 185.626C535.361 185.661 535.294 185.68 535.226 185.682L535.215 185.682Z" fill="white"/>
<path d="M535.735 212.256C537.844 212.256 539.554 210.438 539.554 208.195C539.554 205.952 537.844 204.134 535.735 204.134C533.627 204.134 531.917 205.952 531.917 208.195C531.917 210.438 533.627 212.256 535.735 212.256Z" fill="#F2F2F2"/>
<path d="M510.059 132.568H467.684C467.279 132.568 466.89 132.739 466.603 133.044C466.316 133.349 466.155 133.763 466.155 134.194C466.155 134.626 466.316 135.039 466.603 135.344C466.89 135.649 467.279 135.821 467.684 135.821H510.059C510.465 135.821 510.854 135.649 511.14 135.344C511.427 135.039 511.588 134.626 511.588 134.194C511.588 133.763 511.427 133.349 511.14 133.044C510.854 132.739 510.465 132.568 510.059 132.568Z" fill="#E6E6E6"/>
<path d="M535.735 138.377C537.844 138.377 539.554 136.559 539.554 134.316C539.554 132.073 537.844 130.255 535.735 130.255C533.627 130.255 531.917 132.073 531.917 134.316C531.917 136.559 533.627 138.377 535.735 138.377Z" fill="#006CFF"/>
<path d="M535.215 136.43C535.149 136.43 535.084 136.413 535.025 136.382C534.966 136.351 534.914 136.305 534.875 136.249L533.833 134.772C533.8 134.724 533.775 134.67 533.761 134.613C533.747 134.555 533.744 134.495 533.752 134.437C533.76 134.378 533.779 134.321 533.807 134.27C533.835 134.219 533.873 134.174 533.918 134.139C533.962 134.103 534.013 134.077 534.067 134.063C534.121 134.048 534.178 134.045 534.233 134.053C534.288 134.061 534.341 134.081 534.389 134.112C534.437 134.142 534.479 134.182 534.513 134.23L535.194 135.196L536.945 132.403C536.976 132.354 537.015 132.312 537.062 132.279C537.108 132.246 537.16 132.223 537.215 132.211C537.269 132.199 537.326 132.199 537.38 132.211C537.435 132.222 537.487 132.245 537.534 132.278C537.58 132.311 537.62 132.353 537.651 132.403C537.682 132.452 537.704 132.507 537.715 132.565C537.725 132.624 537.725 132.684 537.715 132.742C537.704 132.8 537.682 132.855 537.651 132.905L535.568 136.229C535.53 136.289 535.48 136.338 535.42 136.373C535.361 136.408 535.294 136.428 535.226 136.43L535.215 136.43Z" fill="white"/>
<path d="M523.066 138.377C525.175 138.377 526.885 136.559 526.885 134.316C526.885 132.073 525.175 130.255 523.066 130.255C520.958 130.255 519.248 132.073 519.248 134.316C519.248 136.559 520.958 138.377 523.066 138.377Z" fill="#F2F2F2"/>
<path d="M523.066 163.004C525.175 163.004 526.885 161.185 526.885 158.942C526.885 156.699 525.175 154.881 523.066 154.881C520.958 154.881 519.248 156.699 519.248 158.942C519.248 161.185 520.958 163.004 523.066 163.004Z" fill="#F2F2F2"/>
<path d="M523.066 187.63C525.175 187.63 526.885 185.812 526.885 183.569C526.885 181.326 525.175 179.507 523.066 179.507C520.958 179.507 519.248 181.326 519.248 183.569C519.248 185.812 520.958 187.63 523.066 187.63Z" fill="#F2F2F2"/>
<path d="M523.066 212.256C525.175 212.256 526.885 210.438 526.885 208.195C526.885 205.952 525.175 204.134 523.066 204.134C520.958 204.134 519.248 205.952 519.248 208.195C519.248 210.438 520.958 212.256 523.066 212.256Z" fill="#F2F2F2"/>
<path d="M535.214 210.309C535.149 210.309 535.083 210.292 535.025 210.261C534.966 210.23 534.914 210.184 534.875 210.128L533.833 208.651C533.8 208.603 533.775 208.549 533.761 208.492C533.748 208.434 533.744 208.374 533.752 208.316C533.76 208.257 533.779 208.2 533.807 208.149C533.836 208.098 533.873 208.054 533.918 208.018C533.963 207.983 534.013 207.957 534.067 207.942C534.121 207.927 534.178 207.924 534.233 207.932C534.288 207.941 534.341 207.961 534.389 207.991C534.437 208.021 534.479 208.061 534.513 208.109L535.194 209.075L536.945 206.282C537.007 206.183 537.104 206.114 537.215 206.09C537.325 206.067 537.44 206.091 537.534 206.157C537.627 206.224 537.692 206.327 537.714 206.444C537.737 206.562 537.714 206.684 537.651 206.784L535.568 210.108C535.53 210.168 535.48 210.217 535.42 210.252C535.361 210.287 535.294 210.307 535.226 210.309L535.214 210.309Z" fill="white"/>
<path d="M416.14 191.303H346.362C345.957 191.303 345.568 191.475 345.282 191.78C344.996 192.085 344.835 192.498 344.835 192.929C344.835 193.36 344.996 193.773 345.282 194.078C345.568 194.383 345.957 194.555 346.362 194.555H416.14C416.341 194.556 416.54 194.514 416.726 194.432C416.911 194.351 417.08 194.231 417.223 194.08C417.365 193.929 417.478 193.749 417.555 193.552C417.632 193.354 417.671 193.143 417.671 192.929C417.671 192.715 417.632 192.504 417.555 192.306C417.478 192.109 417.365 191.929 417.223 191.778C417.08 191.627 416.911 191.507 416.726 191.426C416.54 191.344 416.341 191.302 416.14 191.303Z" fill="#E6E6E6"/>
<path d="M441.816 197.112C443.925 197.112 445.635 195.294 445.635 193.051C445.635 190.808 443.925 188.989 441.816 188.989C439.707 188.989 437.998 190.808 437.998 193.051C437.998 195.294 439.707 197.112 441.816 197.112Z" fill="#006CFF"/>
<path d="M441.295 195.164C441.229 195.164 441.164 195.148 441.105 195.117C441.046 195.085 440.995 195.04 440.956 194.984L439.914 193.506C439.88 193.459 439.856 193.405 439.842 193.347C439.828 193.29 439.825 193.23 439.833 193.171C439.841 193.113 439.86 193.056 439.888 193.005C439.917 192.954 439.954 192.909 439.999 192.874C440.043 192.838 440.094 192.812 440.148 192.798C440.202 192.783 440.258 192.78 440.314 192.788C440.369 192.796 440.422 192.816 440.47 192.847C440.518 192.877 440.56 192.917 440.593 192.964L441.275 193.931L443.025 191.138C443.056 191.089 443.096 191.046 443.142 191.013C443.189 190.98 443.241 190.957 443.295 190.946C443.35 190.934 443.406 190.934 443.461 190.945C443.516 190.957 443.568 190.98 443.614 191.013C443.661 191.046 443.701 191.088 443.732 191.137C443.763 191.187 443.784 191.242 443.795 191.3C443.806 191.358 443.806 191.418 443.795 191.476C443.785 191.535 443.763 191.59 443.732 191.639L441.649 194.963C441.611 195.023 441.56 195.073 441.501 195.108C441.441 195.143 441.375 195.162 441.307 195.164L441.295 195.164Z" fill="white"/>
<path d="M429.147 197.112C431.256 197.112 432.966 195.294 432.966 193.051C432.966 190.808 431.256 188.989 429.147 188.989C427.039 188.989 425.329 190.808 425.329 193.051C425.329 195.294 427.039 197.112 429.147 197.112Z" fill="#F2F2F2"/>
<path d="M415.81 210.968H346.032C345.627 210.968 345.238 211.14 344.952 211.445C344.666 211.75 344.505 212.163 344.505 212.594C344.505 213.025 344.666 213.438 344.952 213.743C345.238 214.048 345.627 214.22 346.032 214.22H415.81C416.215 214.22 416.604 214.049 416.891 213.744C417.178 213.439 417.339 213.025 417.339 212.594C417.339 212.163 417.178 211.749 416.891 211.444C416.604 211.139 416.215 210.968 415.81 210.968Z" fill="#E6E6E6"/>
<path d="M441.486 216.777C443.595 216.777 445.304 214.959 445.304 212.716C445.304 210.473 443.595 208.654 441.486 208.654C439.377 208.654 437.668 210.473 437.668 212.716C437.668 214.959 439.377 216.777 441.486 216.777Z" fill="#F2F2F2"/>
<path d="M440.965 214.829C440.899 214.829 440.834 214.813 440.775 214.782C440.716 214.75 440.665 214.705 440.625 214.649L439.584 213.171C439.516 213.075 439.487 212.955 439.503 212.836C439.519 212.718 439.579 212.611 439.669 212.539C439.759 212.467 439.872 212.436 439.984 212.453C440.095 212.47 440.196 212.533 440.263 212.629L440.945 213.596L442.695 210.803C442.726 210.754 442.766 210.711 442.812 210.678C442.859 210.645 442.911 210.622 442.965 210.611C443.02 210.599 443.076 210.599 443.131 210.611C443.186 210.622 443.238 210.645 443.284 210.678C443.331 210.711 443.371 210.753 443.402 210.802C443.433 210.852 443.454 210.907 443.465 210.965C443.476 211.023 443.476 211.083 443.465 211.141C443.455 211.2 443.433 211.255 443.402 211.304L441.319 214.628C441.281 214.688 441.23 214.738 441.171 214.773C441.111 214.808 441.045 214.827 440.977 214.829L440.965 214.829Z" fill="white"/>
<path d="M428.817 216.777C430.926 216.777 432.636 214.959 432.636 212.716C432.636 210.473 430.926 208.654 428.817 208.654C426.708 208.654 424.999 210.473 424.999 212.716C424.999 214.959 426.708 216.777 428.817 216.777Z" fill="#F2F2F2"/>
<path d="M521.602 217.227C521.883 216.885 522.087 216.484 522.199 216.054C522.311 215.624 522.328 215.174 522.249 214.737C522.169 214.3 521.996 213.885 521.741 213.523C521.485 213.16 521.154 212.858 520.771 212.639L522.717 202.01L517.586 204.199L516.525 213.957C516.202 214.631 516.135 215.401 516.337 216.122C516.54 216.842 516.997 217.462 517.623 217.865C518.249 218.268 518.999 218.426 519.733 218.308C520.466 218.19 521.131 217.806 521.602 217.227Z" fill="#FFB6B6"/>
<path d="M525.267 183.501L523.636 178.285L512.139 161.215C511.5 160.504 510.735 159.904 509.88 159.442C508.181 158.518 506.2 158.176 504.268 158.473C502.336 158.77 500.569 159.688 499.262 161.075C497.955 162.461 497.187 164.232 497.085 166.092C496.984 167.952 497.556 169.789 498.705 171.297C498.942 171.612 499.204 171.909 499.488 172.186L514.379 186.8L515.226 187.634L516.567 190.86L517.095 205.569L517.569 205.677L521.742 206.612L522.325 206.744L523.301 201.939L523.913 199.642C524.434 197.684 524.697 195.671 524.696 193.651C524.696 193.028 524.674 192.403 524.622 191.78L525.267 183.501Z" fill="#3F3D56"/>
<path d="M509.462 284.932H505.469L503.57 270.278L509.462 270.279L509.462 284.932Z" fill="#FFB6B6"/>
<path d="M509.355 283.691L505.095 282.044L504.969 281.995L502.617 283.691C501.326 283.691 500.085 284.165 499.153 285.015C498.22 285.864 497.669 287.023 497.613 288.251C497.606 288.318 497.606 288.389 497.606 288.459V288.616H510.479V283.691H509.355Z" fill="#2F2E41"/>
<path d="M501.859 277.354L498.417 279.281L488.971 267.568L494.049 264.724L501.859 277.354Z" fill="#FFB6B6"/>
<path d="M504.235 279.285L503.768 278.527L502.076 275.792L501.196 276.286L501.106 276.335L496.556 276.973L496.421 276.991L495.299 279.588C494.732 279.906 494.236 280.326 493.84 280.826C493.443 281.326 493.154 281.895 492.989 282.502C492.824 283.108 492.786 283.739 492.877 284.359C492.968 284.98 493.187 285.577 493.521 286.116L493.605 286.248L504.699 280.036L504.235 279.285Z" fill="#2F2E41"/>
<path d="M514.518 195.346C516.389 200.718 516.192 206.549 514.068 212.808L513.513 234.323L511.733 247.894C512.807 250.554 513.357 253.378 513.358 256.227C513.35 263.694 512.823 274.302 510.148 279.286H503.817L502.388 257.093L500.683 245.935L500.473 233.979L500.289 223.551L493.406 233.129L486.718 242.436L493.366 253.107L499.166 270.279L493.044 275.185L486.098 262.655L482.732 258.933L473.544 240.004L474.369 237.369C476.07 231.941 478.54 226.76 481.711 221.967L490.85 201.781L514.518 195.346Z" fill="#2F2E41"/>
<path d="M515.329 193.552L514.285 191.565L514.379 186.8L514.691 170.69C514.729 168.603 514.322 166.531 513.495 164.598C512.668 162.665 511.439 160.911 509.88 159.442C508.956 158.566 507.921 157.8 506.8 157.164L504.557 155.888L503.423 153.147L492.963 153.389L492.941 156.048L492.931 156.983L489.184 162.668L489.187 162.693L489.264 173.039L489.419 193.632L490.453 196.824L488.89 200.541L489.722 202.908L490.386 202.807L512.742 199.406C513.758 199.096 514.62 198.444 515.168 197.572C515.278 197.402 515.374 197.224 515.455 197.039C515.699 196.483 515.814 195.884 515.792 195.283C515.77 194.681 515.612 194.091 515.329 193.552Z" fill="#3F3D56"/>
<path d="M497.234 149.737C502.483 149.737 506.738 145.688 506.738 140.693C506.738 135.698 502.483 131.648 497.234 131.648C491.985 131.648 487.729 135.698 487.729 140.693C487.729 145.688 491.985 149.737 497.234 149.737Z" fill="#FFB6B6"/>
<path d="M503.146 148.187C504.15 147.515 505.167 146.236 505.844 145.278C506.741 144.019 507.351 142.594 507.632 141.096C507.914 139.599 507.862 138.061 507.48 136.584C507.356 135.993 507.065 135.445 506.639 135C506.421 134.783 506.136 134.637 505.825 134.583C505.514 134.529 505.194 134.569 504.909 134.7C505.053 134.318 505.112 133.912 505.085 133.507C505.057 133.102 504.942 132.707 504.748 132.346C504.354 131.626 503.788 131.002 503.096 130.526C501.773 129.584 500.206 129 498.562 128.837C496.919 128.673 495.259 128.937 493.76 129.599C493.17 129.868 494.116 127.834 493.497 128.037C492.883 128.272 492.197 128.27 491.585 128.03C490.996 127.758 489.083 129.446 489.299 128.859C488.858 129.056 488.477 129.356 488.191 129.732C487.906 130.107 487.724 130.545 487.664 131.005C487.604 131.465 487.667 131.932 487.848 132.362C488.029 132.793 488.321 133.173 488.697 133.467C489.194 133.854 489.809 134.073 490.351 134.401C491.301 135.018 491.981 135.945 492.262 137.007C492.543 138.069 492.405 139.192 491.875 140.164C492.435 139.811 493.052 139.546 493.7 139.38C494.026 139.3 494.367 139.295 494.695 139.366C495.022 139.436 495.328 139.58 495.586 139.786C495.802 140.015 495.966 140.283 496.069 140.575C496.173 140.866 496.212 141.175 496.185 141.482C496.173 142.096 496.028 142.702 496.02 143.316C495.995 145.118 495.032 148.556 496.513 149.494C497.682 150.234 501.776 149.105 503.146 148.187Z" fill="#2F2E41"/>
<path d="M444.434 162.692C444.659 163.053 444.964 163.363 445.328 163.599C445.693 163.836 446.107 163.994 446.542 164.061C446.978 164.129 447.423 164.105 447.848 163.991C448.272 163.877 448.665 163.676 448.999 163.402L458.275 168.517L457.953 163.225L449.194 159.179C448.673 158.675 447.976 158.371 447.235 158.324C446.494 158.277 445.761 158.49 445.174 158.923C444.588 159.356 444.188 159.979 444.052 160.674C443.915 161.368 444.051 162.086 444.434 162.692Z" fill="#FFB6B6"/>
<path d="M504.335 161.107C503.975 160.037 503.386 159.049 502.606 158.206C501.826 157.362 500.871 156.682 499.8 156.207C498.73 155.731 497.569 155.472 496.388 155.445C495.208 155.417 494.034 155.623 492.941 156.048C492.838 156.088 492.735 156.131 492.631 156.174L472.054 165.088L464.043 164.183L453.674 160.736L453.41 161.126L451.08 164.551L450.755 165.029L461.878 171.288L463.057 171.521C464.084 171.723 465.059 172.116 465.926 172.677C466.793 173.239 467.535 173.958 468.11 174.793L472.421 176.142L489.264 173.039L498.705 171.297L499.24 171.199C500.858 170.606 502.25 169.561 503.231 168.202C504.213 166.842 504.739 165.232 504.741 163.582C504.741 162.742 504.604 161.907 504.335 161.107Z" fill="#3F3D56"/>
</g>
<g clip-path="url(#clip2_6_192)">
<path d="M343.708 241.478H292.029C291.747 237.341 291.771 233.189 292.103 229.055C294.168 203.52 308.065 179.195 329.03 164.465C326.352 174.006 327.728 183.491 330.519 193.013C330.128 193.143 329.737 193.255 329.384 193.403C326.554 194.451 323.956 196.044 321.738 198.09C321.124 198.666 320.473 199.503 320.789 200.303C321.068 200.973 321.905 201.196 322.631 201.345C324.38 201.679 326.128 202.014 327.858 202.33C329.254 202.609 330.649 202.87 332.044 203.149C332.695 203.26 333.346 203.39 333.997 203.52C334.09 203.744 334.146 203.948 334.239 204.153C337.513 213.173 341.085 222.267 342.759 231.51C343.174 233.83 343.46 236.17 343.615 238.521C343.671 239.507 343.708 240.493 343.708 241.478Z" fill="#F2F2F2"/>
<path d="M108.056 207.631C99.2754 212.968 93.6945 221.225 89.1368 230.468C85.1706 231.372 81.509 233.295 78.5144 236.048C77.8818 236.624 77.2307 237.461 77.5656 238.261C77.8447 238.931 78.6818 239.154 79.4073 239.302C81.1374 239.637 82.9047 239.972 84.6347 240.288C84.4674 240.679 84.2999 241.088 84.1326 241.478H26.0908C28.7256 237.926 31.6434 234.592 34.8157 231.51C35.504 230.822 36.2109 230.171 36.9365 229.501C44.3353 222.817 52.831 217.457 62.0507 213.656C76.575 207.586 92.4578 205.506 108.056 207.631Z" fill="#F2F2F2"/>
<path d="M80.4509 232.037C80.4502 233.746 80.7778 235.439 81.4157 237.024C81.6608 237.639 81.9533 238.234 82.2906 238.804C82.7263 239.546 83.2318 240.246 83.8003 240.893C85.0562 242.323 86.6031 243.47 88.3376 244.255C90.0722 245.04 91.9544 245.446 93.8585 245.445H289.478C293.034 245.445 296.444 244.033 298.958 241.52C301.473 239.006 302.885 235.597 302.885 232.042C302.885 228.487 301.473 225.078 298.958 222.564C296.444 220.05 293.034 218.638 289.478 218.638H93.8585C90.3045 218.642 86.8971 220.054 84.3835 222.566C81.87 225.078 80.4558 228.484 80.4509 232.037Z" fill="#E6E6E6"/>
<path d="M-24 240C-19.4994 244.978 -14.6315 249.656 -9.43191 254H408.432C413.632 249.656 418.499 244.978 423 240H-24Z" fill="#3F3D56"/>
<path d="M174.309 191.311V242.567H210.227V191.311C210.228 190.942 210.11 190.583 209.892 190.286C209.673 189.99 209.365 189.771 209.013 189.662C208.846 189.607 208.672 189.58 208.498 189.582H176.044C175.816 189.581 175.591 189.626 175.38 189.712C175.17 189.799 174.979 189.926 174.818 190.087C174.657 190.248 174.529 190.438 174.441 190.648C174.354 190.858 174.309 191.084 174.309 191.311ZM188.326 208.923C188.336 207.912 188.744 206.947 189.462 206.235C190.18 205.524 191.15 205.125 192.161 205.125C193.171 205.125 194.141 205.524 194.859 206.235C195.577 206.947 195.985 207.912 195.995 208.923V214.87C195.99 215.883 195.583 216.853 194.865 217.568C194.146 218.282 193.174 218.684 192.161 218.684C191.147 218.684 190.175 218.282 189.456 217.568C188.738 216.853 188.331 215.883 188.326 214.87V208.923Z" fill="#2F2E41"/>
<path d="M174.199 240.928V245.87C174.2 246.126 174.302 246.372 174.482 246.553C174.663 246.735 174.908 246.838 175.164 246.84H209.373C209.629 246.838 209.874 246.736 210.055 246.554C210.236 246.372 210.337 246.127 210.337 245.87V240.928H174.199Z" fill="#3F3D56"/>
<path d="M117.804 114.088V207.673C117.805 208.866 118.279 210.009 119.123 210.853C119.967 211.696 121.11 212.17 122.303 212.171H261.028C262.221 212.17 263.365 211.696 264.208 210.853C265.052 210.009 265.526 208.866 265.527 207.673V114.088C265.524 112.896 265.049 111.754 264.206 110.912C263.363 110.07 262.22 109.596 261.028 109.595H122.303C121.111 109.596 119.969 110.07 119.125 110.912C118.282 111.754 117.807 112.896 117.804 114.088Z" fill="#3F3D56"/>
<path d="M121.059 115.252V206.519C121.06 207.156 121.313 207.767 121.764 208.217C122.215 208.668 122.826 208.922 123.463 208.923H259.873C260.511 208.922 261.122 208.668 261.572 208.217C262.023 207.767 262.277 207.156 262.278 206.519V115.252C262.278 114.614 262.025 114.002 261.574 113.55C261.123 113.099 260.512 112.844 259.873 112.843H123.463C122.825 112.844 122.213 113.099 121.763 113.55C121.312 114.002 121.059 114.614 121.059 115.252Z" fill="#00B0FF"/>
<path d="M148.874 248.004C149.012 248.178 149.189 248.319 149.39 248.415C149.591 248.511 149.811 248.56 150.033 248.559H231.189C231.411 248.559 231.63 248.509 231.83 248.413C232.03 248.318 232.207 248.179 232.347 248.006C232.486 247.834 232.586 247.633 232.638 247.417C232.69 247.202 232.694 246.977 232.648 246.76L231.389 240.778C231.336 240.534 231.224 240.307 231.062 240.117C230.899 239.928 230.692 239.782 230.459 239.693C230.29 239.627 230.11 239.593 229.929 239.593H151.288C151.107 239.593 150.927 239.627 150.758 239.693C150.525 239.782 150.318 239.928 150.155 240.117C149.993 240.307 149.881 240.534 149.828 240.778L148.569 246.76C148.524 246.977 148.528 247.201 148.581 247.416C148.633 247.632 148.733 247.832 148.874 248.004Z" fill="#2F2E41"/>
<path d="M227.097 242.17H229.108C229.243 242.17 229.352 242.061 229.352 241.926V240.915C229.352 240.78 229.243 240.671 229.108 240.671H227.097C226.962 240.671 226.853 240.78 226.853 240.915V241.926C226.853 242.061 226.962 242.17 227.097 242.17Z" fill="#3F3D56"/>
<path d="M222.098 242.17H224.109C224.244 242.17 224.353 242.061 224.353 241.926V240.915C224.353 240.78 224.244 240.671 224.109 240.671H222.098C221.963 240.671 221.854 240.78 221.854 240.915V241.926C221.854 242.061 221.963 242.17 222.098 242.17Z" fill="#3F3D56"/>
<path d="M217.099 242.17H219.11C219.245 242.17 219.354 242.061 219.354 241.926V240.915C219.354 240.78 219.245 240.671 219.11 240.671H217.099C216.964 240.671 216.855 240.78 216.855 240.915V241.926C216.855 242.061 216.964 242.17 217.099 242.17Z" fill="#3F3D56"/>
<path d="M212.1 242.17H214.111C214.246 242.17 214.355 242.061 214.355 241.926V240.915C214.355 240.78 214.246 240.671 214.111 240.671H212.1C211.965 240.671 211.856 240.78 211.856 240.915V241.926C211.856 242.061 211.965 242.17 212.1 242.17Z" fill="#3F3D56"/>
<path d="M207.1 242.17H209.112C209.247 242.17 209.356 242.061 209.356 241.926V240.915C209.356 240.78 209.247 240.671 209.112 240.671H207.1C206.966 240.671 206.856 240.78 206.856 240.915V241.926C206.856 242.061 206.966 242.17 207.1 242.17Z" fill="#3F3D56"/>
<path d="M202.101 242.17H204.113C204.248 242.17 204.357 242.061 204.357 241.926V240.915C204.357 240.78 204.248 240.671 204.113 240.671H202.101C201.967 240.671 201.857 240.78 201.857 240.915V241.926C201.857 242.061 201.967 242.17 202.101 242.17Z" fill="#3F3D56"/>
<path d="M197.102 242.17H199.114C199.249 242.17 199.358 242.061 199.358 241.926V240.915C199.358 240.78 199.249 240.671 199.114 240.671H197.102C196.968 240.671 196.858 240.78 196.858 240.915V241.926C196.858 242.061 196.968 242.17 197.102 242.17Z" fill="#3F3D56"/>
<path d="M192.103 242.17H194.115C194.249 242.17 194.359 242.061 194.359 241.926V240.915C194.359 240.78 194.249 240.671 194.115 240.671H192.103C191.968 240.671 191.859 240.78 191.859 240.915V241.926C191.859 242.061 191.968 242.17 192.103 242.17Z" fill="#3F3D56"/>
<path d="M187.104 242.17H189.116C189.25 242.17 189.36 242.061 189.36 241.926V240.915C189.36 240.78 189.25 240.671 189.116 240.671H187.104C186.969 240.671 186.86 240.78 186.86 240.915V241.926C186.86 242.061 186.969 242.17 187.104 242.17Z" fill="#3F3D56"/>
<path d="M182.105 242.17H184.117C184.251 242.17 184.361 242.061 184.361 241.926V240.915C184.361 240.78 184.251 240.671 184.117 240.671H182.105C181.97 240.671 181.861 240.78 181.861 240.915V241.926C181.861 242.061 181.97 242.17 182.105 242.17Z" fill="#3F3D56"/>
<path d="M177.106 242.17H179.118C179.252 242.17 179.362 242.061 179.362 241.926V240.915C179.362 240.78 179.252 240.671 179.118 240.671H177.106C176.971 240.671 176.862 240.78 176.862 240.915V241.926C176.862 242.061 176.971 242.17 177.106 242.17Z" fill="#3F3D56"/>
<path d="M172.107 242.17H174.118C174.253 242.17 174.362 242.061 174.362 241.926V240.915C174.362 240.78 174.253 240.671 174.118 240.671H172.107C171.972 240.671 171.863 240.78 171.863 240.915V241.926C171.863 242.061 171.972 242.17 172.107 242.17Z" fill="#3F3D56"/>
<path d="M167.108 242.17H169.119C169.254 242.17 169.363 242.061 169.363 241.926V240.915C169.363 240.78 169.254 240.671 169.119 240.671H167.108C166.973 240.671 166.864 240.78 166.864 240.915V241.926C166.864 242.061 166.973 242.17 167.108 242.17Z" fill="#3F3D56"/>
<path d="M162.109 242.17H164.12C164.255 242.17 164.364 242.061 164.364 241.926V240.915C164.364 240.78 164.255 240.671 164.12 240.671H162.109C161.974 240.671 161.865 240.78 161.865 240.915V241.926C161.865 242.061 161.974 242.17 162.109 242.17Z" fill="#3F3D56"/>
<path d="M157.11 242.17H159.121C159.256 242.17 159.365 242.061 159.365 241.926V240.915C159.365 240.78 159.256 240.671 159.121 240.671H157.11C156.975 240.671 156.866 240.78 156.866 240.915V241.926C156.866 242.061 156.975 242.17 157.11 242.17Z" fill="#3F3D56"/>
<path d="M152.11 242.17H154.122C154.257 242.17 154.366 242.061 154.366 241.926V240.915C154.366 240.78 154.257 240.671 154.122 240.671H152.11C151.976 240.671 151.866 240.78 151.866 240.915V241.926C151.866 242.061 151.976 242.17 152.11 242.17Z" fill="#3F3D56"/>
<path d="M227.156 244.669H229.167C229.302 244.669 229.411 244.559 229.411 244.425V243.413C229.411 243.279 229.302 243.169 229.167 243.169H227.156C227.021 243.169 226.912 243.279 226.912 243.413V244.425C226.912 244.559 227.021 244.669 227.156 244.669Z" fill="#3F3D56"/>
<path d="M222.157 244.669H224.168C224.303 244.669 224.412 244.559 224.412 244.425V243.413C224.412 243.279 224.303 243.169 224.168 243.169H222.157C222.022 243.169 221.913 243.279 221.913 243.413V244.425C221.913 244.559 222.022 244.669 222.157 244.669Z" fill="#3F3D56"/>
<path d="M217.158 244.669H219.169C219.304 244.669 219.413 244.559 219.413 244.425V243.413C219.413 243.279 219.304 243.169 219.169 243.169H217.158C217.023 243.169 216.914 243.279 216.914 243.413V244.425C216.914 244.559 217.023 244.669 217.158 244.669Z" fill="#3F3D56"/>
<path d="M212.159 244.669H214.17C214.305 244.669 214.414 244.559 214.414 244.425V243.413C214.414 243.279 214.305 243.169 214.17 243.169H212.159C212.024 243.169 211.915 243.279 211.915 243.413V244.425C211.915 244.559 212.024 244.669 212.159 244.669Z" fill="#3F3D56"/>
<path d="M207.16 244.669H209.171C209.306 244.669 209.415 244.559 209.415 244.425V243.413C209.415 243.279 209.306 243.169 209.171 243.169H207.16C207.025 243.169 206.915 243.279 206.915 243.413V244.425C206.915 244.559 207.025 244.669 207.16 244.669Z" fill="#3F3D56"/>
<path d="M202.161 244.669H204.172C204.307 244.669 204.416 244.559 204.416 244.425V243.413C204.416 243.279 204.307 243.169 204.172 243.169H202.161C202.026 243.169 201.916 243.279 201.916 243.413V244.425C201.916 244.559 202.026 244.669 202.161 244.669Z" fill="#3F3D56"/>
<path d="M197.161 244.669H199.173C199.308 244.669 199.417 244.559 199.417 244.425V243.413C199.417 243.279 199.308 243.169 199.173 243.169H197.161C197.027 243.169 196.917 243.279 196.917 243.413V244.425C196.917 244.559 197.027 244.669 197.161 244.669Z" fill="#3F3D56"/>
<path d="M192.162 244.669H194.174C194.308 244.669 194.418 244.559 194.418 244.425V243.413C194.418 243.279 194.308 243.169 194.174 243.169H192.162C192.027 243.169 191.918 243.279 191.918 243.413V244.425C191.918 244.559 192.027 244.669 192.162 244.669Z" fill="#3F3D56"/>
<path d="M187.163 244.669H189.175C189.309 244.669 189.419 244.559 189.419 244.425V243.413C189.419 243.279 189.309 243.169 189.175 243.169H187.163C187.028 243.169 186.919 243.279 186.919 243.413V244.425C186.919 244.559 187.028 244.669 187.163 244.669Z" fill="#3F3D56"/>
<path d="M182.164 244.669H184.176C184.31 244.669 184.42 244.559 184.42 244.425V243.413C184.42 243.279 184.31 243.169 184.176 243.169H182.164C182.029 243.169 181.92 243.279 181.92 243.413V244.425C181.92 244.559 182.029 244.669 182.164 244.669Z" fill="#3F3D56"/>
<path d="M177.165 244.669H179.177C179.311 244.669 179.421 244.559 179.421 244.425V243.413C179.421 243.279 179.311 243.169 179.177 243.169H177.165C177.03 243.169 176.921 243.279 176.921 243.413V244.425C176.921 244.559 177.03 244.669 177.165 244.669Z" fill="#3F3D56"/>
<path d="M172.166 244.669H174.177C174.312 244.669 174.421 244.559 174.421 244.425V243.413C174.421 243.279 174.312 243.169 174.177 243.169H172.166C172.031 243.169 171.922 243.279 171.922 243.413V244.425C171.922 244.559 172.031 244.669 172.166 244.669Z" fill="#3F3D56"/>
<path d="M167.167 244.669H169.178C169.313 244.669 169.422 244.559 169.422 244.425V243.413C169.422 243.279 169.313 243.169 169.178 243.169H167.167C167.032 243.169 166.923 243.279 166.923 243.413V244.425C166.923 244.559 167.032 244.669 167.167 244.669Z" fill="#3F3D56"/>
<path d="M162.168 244.669H164.179C164.314 244.669 164.423 244.559 164.423 244.425V243.413C164.423 243.279 164.314 243.169 164.179 243.169H162.168C162.033 243.169 161.924 243.279 161.924 243.413V244.425C161.924 244.559 162.033 244.669 162.168 244.669Z" fill="#3F3D56"/>
<path d="M157.169 244.669H159.18C159.315 244.669 159.424 244.559 159.424 244.425V243.413C159.424 243.279 159.315 243.169 159.18 243.169H157.169C157.034 243.169 156.925 243.279 156.925 243.413V244.425C156.925 244.559 157.034 244.669 157.169 244.669Z" fill="#3F3D56"/>
<path d="M152.17 244.669H154.181C154.316 244.669 154.425 244.559 154.425 244.425V243.413C154.425 243.279 154.316 243.169 154.181 243.169H152.17C152.035 243.169 151.926 243.279 151.926 243.413V244.425C151.926 244.559 152.035 244.669 152.17 244.669Z" fill="#3F3D56"/>
<path d="M185.663 247.667H205.172C205.306 247.667 205.416 247.558 205.416 247.423V246.412C205.416 246.277 205.306 246.168 205.172 246.168H185.663C185.529 246.168 185.419 246.277 185.419 246.412V247.423C185.419 247.558 185.529 247.667 185.663 247.667Z" fill="#3F3D56"/>
<path d="M130.318 125.416H257.956C258.089 125.413 258.215 125.358 258.308 125.263C258.401 125.168 258.453 125.041 258.453 124.908C258.453 124.775 258.401 124.648 258.308 124.553C258.215 124.458 258.089 124.404 257.956 124.401H130.318C130.185 124.404 130.059 124.458 129.966 124.553C129.873 124.648 129.821 124.775 129.821 124.908C129.821 125.041 129.873 125.168 129.966 125.263C130.059 125.358 130.185 125.413 130.318 125.416Z" fill="#3F3D56"/>
<path d="M249.268 121.81C250.911 121.81 252.243 120.449 252.243 118.77C252.243 117.091 250.911 115.73 249.268 115.73C247.625 115.73 246.293 117.091 246.293 118.77C246.293 120.449 247.625 121.81 249.268 121.81Z" fill="#3F3D56"/>
<path d="M238.992 121.81C240.635 121.81 241.966 120.449 241.966 118.77C241.966 117.091 240.635 115.73 238.992 115.73C237.349 115.73 236.017 117.091 236.017 118.77C236.017 120.449 237.349 121.81 238.992 121.81Z" fill="#3F3D56"/>
<path d="M228.715 121.81C230.358 121.81 231.69 120.449 231.69 118.77C231.69 117.091 230.358 115.73 228.715 115.73C227.073 115.73 225.741 117.091 225.741 118.77C225.741 120.449 227.073 121.81 228.715 121.81Z" fill="#3F3D56"/>
<path d="M135.961 117.036C135.961 117.108 135.974 117.179 136.002 117.246C136.029 117.312 136.069 117.373 136.119 117.424C136.17 117.475 136.23 117.515 136.297 117.543C136.363 117.571 136.434 117.585 136.506 117.586H143.805C143.949 117.582 144.086 117.523 144.187 117.42C144.288 117.316 144.344 117.178 144.344 117.034C144.344 116.889 144.288 116.751 144.187 116.648C144.086 116.544 143.949 116.485 143.805 116.481H136.506C136.36 116.483 136.221 116.542 136.119 116.646C136.017 116.75 135.96 116.89 135.961 117.036Z" fill="#3F3D56"/>
<path d="M135.961 119.11C135.961 119.182 135.974 119.253 136.002 119.32C136.029 119.386 136.069 119.447 136.119 119.498C136.17 119.549 136.23 119.59 136.297 119.617C136.363 119.645 136.434 119.66 136.506 119.66H143.805C143.949 119.657 144.086 119.597 144.187 119.494C144.288 119.391 144.345 119.252 144.345 119.108C144.345 118.963 144.288 118.825 144.187 118.721C144.086 118.618 143.949 118.559 143.805 118.555H136.506C136.36 118.557 136.221 118.617 136.119 118.72C136.017 118.824 135.96 118.964 135.961 119.11Z" fill="#3F3D56"/>
<path d="M135.961 121.179C135.96 121.325 136.017 121.465 136.119 121.569C136.221 121.673 136.36 121.732 136.506 121.734H143.805C143.949 121.731 144.086 121.671 144.187 121.568C144.288 121.464 144.344 121.326 144.344 121.182C144.344 121.037 144.288 120.899 144.187 120.796C144.086 120.692 143.949 120.633 143.805 120.629H136.506C136.434 120.63 136.363 120.644 136.297 120.672C136.23 120.7 136.17 120.74 136.119 120.791C136.069 120.842 136.029 120.903 136.002 120.97C135.974 121.036 135.961 121.107 135.961 121.179Z" fill="#3F3D56"/>
<path d="M138.217 137.208H135.594C134.799 137.208 134.154 137.853 134.154 138.648C134.154 139.442 134.799 140.087 135.594 140.087H138.217C139.012 140.087 139.656 139.442 139.656 138.648C139.656 137.853 139.012 137.208 138.217 137.208Z" fill="#E6E6E6"/>
<path d="M168.211 137.208H165.588C164.793 137.208 164.149 137.853 164.149 138.648C164.149 139.442 164.793 140.087 165.588 140.087H168.211C169.006 140.087 169.651 139.442 169.651 138.648C169.651 137.853 169.006 137.208 168.211 137.208Z" fill="#E6E6E6"/>
<path d="M176.71 137.208H174.087C173.292 137.208 172.647 137.853 172.647 138.648C172.647 139.442 173.292 140.087 174.087 140.087H176.71C177.505 140.087 178.149 139.442 178.149 138.648C178.149 137.853 177.505 137.208 176.71 137.208Z" fill="#E6E6E6"/>
<path d="M160.052 136.968H143.752C142.957 136.968 142.313 137.613 142.313 138.408C142.313 139.202 142.957 139.847 143.752 139.847H160.052C160.848 139.847 161.492 139.202 161.492 138.408C161.492 137.613 160.848 136.968 160.052 136.968Z" fill="#E6E6E6"/>
<path d="M200.045 136.968H183.745C182.95 136.968 182.306 137.613 182.306 138.408C182.306 139.202 182.95 139.847 183.745 139.847H200.045C200.84 139.847 201.485 139.202 201.485 138.408C201.485 137.613 200.84 136.968 200.045 136.968Z" fill="#E6E6E6"/>
<path d="M146.215 143.705H143.593C142.797 143.705 142.153 144.35 142.153 145.144C142.153 145.939 142.797 146.584 143.593 146.584H146.215C147.01 146.584 147.655 145.939 147.655 145.144C147.655 144.35 147.01 143.705 146.215 143.705Z" fill="#E6E6E6"/>
<path d="M176.21 143.705H173.587C172.792 143.705 172.147 144.35 172.147 145.144C172.147 145.939 172.792 146.584 173.587 146.584H176.21C177.005 146.584 177.649 145.939 177.649 145.144C177.649 144.35 177.005 143.705 176.21 143.705Z" fill="#E6E6E6"/>
<path d="M184.708 143.705H182.085C181.29 143.705 180.646 144.35 180.646 145.144C180.646 145.939 181.29 146.584 182.085 146.584H184.708C185.503 146.584 186.148 145.939 186.148 145.144C186.148 144.35 185.503 143.705 184.708 143.705Z" fill="#E6E6E6"/>
<path d="M168.051 143.465H151.751C150.956 143.465 150.311 144.11 150.311 144.905C150.311 145.699 150.956 146.344 151.751 146.344H168.051C168.846 146.344 169.491 145.699 169.491 144.905C169.491 144.11 168.846 143.465 168.051 143.465Z" fill="#E6E6E6"/>
<path d="M208.044 143.465H191.744C190.949 143.465 190.304 144.11 190.304 144.905C190.304 145.699 190.949 146.344 191.744 146.344H208.044C208.839 146.344 209.484 145.699 209.484 144.905C209.484 144.11 208.839 143.465 208.044 143.465Z" fill="#E6E6E6"/>
<path d="M154.214 150.202H151.591C150.796 150.202 150.151 150.846 150.151 151.641C150.151 152.436 150.796 153.081 151.591 153.081H154.214C155.009 153.081 155.653 152.436 155.653 151.641C155.653 150.846 155.009 150.202 154.214 150.202Z" fill="#E6E6E6"/>
<path d="M184.208 150.202H181.585C180.79 150.202 180.146 150.846 180.146 151.641C180.146 152.436 180.79 153.081 181.585 153.081H184.208C185.003 153.081 185.648 152.436 185.648 151.641C185.648 150.846 185.003 150.202 184.208 150.202Z" fill="#E6E6E6"/>
<path d="M192.707 150.202H190.084C189.289 150.202 188.644 150.846 188.644 151.641C188.644 152.436 189.289 153.081 190.084 153.081H192.707C193.502 153.081 194.146 152.436 194.146 151.641C194.146 150.846 193.502 150.202 192.707 150.202Z" fill="#E6E6E6"/>
<path d="M176.049 149.962H159.75C158.954 149.962 158.31 150.607 158.31 151.401C158.31 152.196 158.954 152.841 159.75 152.841H176.049C176.845 152.841 177.489 152.196 177.489 151.401C177.489 150.607 176.845 149.962 176.049 149.962Z" fill="#E6E6E6"/>
<path d="M216.042 149.962H199.742C198.947 149.962 198.303 150.607 198.303 151.401C198.303 152.196 198.947 152.841 199.742 152.841H216.042C216.837 152.841 217.482 152.196 217.482 151.401C217.482 150.607 216.837 149.962 216.042 149.962Z" fill="#E6E6E6"/>
<path d="M162.212 156.699H159.59C158.794 156.699 158.15 157.343 158.15 158.138C158.15 158.933 158.794 159.578 159.59 159.578H162.212C163.007 159.578 163.652 158.933 163.652 158.138C163.652 157.343 163.007 156.699 162.212 156.699Z" fill="#E6E6E6"/>
<path d="M192.207 156.699H189.584C188.789 156.699 188.144 157.343 188.144 158.138C188.144 158.933 188.789 159.578 189.584 159.578H192.207C193.002 159.578 193.646 158.933 193.646 158.138C193.646 157.343 193.002 156.699 192.207 156.699Z" fill="#E6E6E6"/>
<path d="M200.705 156.699H198.083C197.287 156.699 196.643 157.343 196.643 158.138C196.643 158.933 197.287 159.578 198.083 159.578H200.705C201.5 159.578 202.145 158.933 202.145 158.138C202.145 157.343 201.5 156.699 200.705 156.699Z" fill="#E6E6E6"/>
<path d="M184.048 156.459H167.748C166.953 156.459 166.308 157.103 166.308 157.898C166.308 158.693 166.953 159.338 167.748 159.338H184.048C184.843 159.338 185.488 158.693 185.488 157.898C185.488 157.103 184.843 156.459 184.048 156.459Z" fill="#E6E6E6"/>
<path d="M168.211 182.534H165.588C164.793 182.534 164.149 183.178 164.149 183.973C164.149 184.768 164.793 185.412 165.588 185.412H168.211C169.006 185.412 169.651 184.768 169.651 183.973C169.651 183.178 169.006 182.534 168.211 182.534Z" fill="#E6E6E6"/>
<path d="M176.71 182.534H174.087C173.292 182.534 172.647 183.178 172.647 183.973C172.647 184.768 173.292 185.412 174.087 185.412H176.71C177.505 185.412 178.149 184.768 178.149 183.973C178.149 183.178 177.505 182.534 176.71 182.534Z" fill="#E6E6E6"/>
<path d="M200.045 182.774H183.745C182.95 182.774 182.306 183.418 182.306 184.213C182.306 185.008 182.95 185.652 183.745 185.652H200.045C200.84 185.652 201.485 185.008 201.485 184.213C201.485 183.418 200.84 182.774 200.045 182.774Z" fill="#E6E6E6"/>
<path d="M138.217 182.534H135.594C134.799 182.534 134.154 183.178 134.154 183.973C134.154 184.768 134.799 185.412 135.594 185.412H138.217C139.012 185.412 139.656 184.768 139.656 183.973C139.656 183.178 139.012 182.534 138.217 182.534Z" fill="#E6E6E6"/>
<path d="M160.052 182.774H143.752C142.957 182.774 142.313 183.418 142.313 184.213C142.313 185.008 142.957 185.652 143.752 185.652H160.052C160.848 185.652 161.492 185.008 161.492 184.213C161.492 183.418 160.848 182.774 160.052 182.774Z" fill="#E6E6E6"/>
<path d="M146.215 176.037H143.593C142.797 176.037 142.153 176.681 142.153 177.476C142.153 178.271 142.797 178.915 143.593 178.915H146.215C147.01 178.915 147.655 178.271 147.655 177.476C147.655 176.681 147.01 176.037 146.215 176.037Z" fill="#E6E6E6"/>
<path d="M176.21 176.037H173.587C172.792 176.037 172.147 176.681 172.147 177.476C172.147 178.271 172.792 178.915 173.587 178.915H176.21C177.005 178.915 177.649 178.271 177.649 177.476C177.649 176.681 177.005 176.037 176.21 176.037Z" fill="#E6E6E6"/>
<path d="M184.708 176.037H182.085C181.29 176.037 180.646 176.681 180.646 177.476C180.646 178.271 181.29 178.915 182.085 178.915H184.708C185.503 178.915 186.148 178.271 186.148 177.476C186.148 176.681 185.503 176.037 184.708 176.037Z" fill="#E6E6E6"/>
<path d="M168.051 176.277H151.751C150.956 176.277 150.311 176.921 150.311 177.716C150.311 178.511 150.956 179.155 151.751 179.155H168.051C168.846 179.155 169.491 178.511 169.491 177.716C169.491 176.921 168.846 176.277 168.051 176.277Z" fill="#E6E6E6"/>
<path d="M154.214 169.54H151.591C150.796 169.54 150.151 170.184 150.151 170.979C150.151 171.774 150.796 172.418 151.591 172.418H154.214C155.009 172.418 155.653 171.774 155.653 170.979C155.653 170.184 155.009 169.54 154.214 169.54Z" fill="#E6E6E6"/>
<path d="M184.208 169.54H181.585C180.79 169.54 180.146 170.184 180.146 170.979C180.146 171.774 180.79 172.418 181.585 172.418H184.208C185.003 172.418 185.648 171.774 185.648 170.979C185.648 170.184 185.003 169.54 184.208 169.54Z" fill="#E6E6E6"/>
<path d="M192.707 169.54H190.084C189.289 169.54 188.644 170.184 188.644 170.979C188.644 171.774 189.289 172.418 190.084 172.418H192.707C193.502 172.418 194.146 171.774 194.146 170.979C194.146 170.184 193.502 169.54 192.707 169.54Z" fill="#E6E6E6"/>
<path d="M176.049 169.78H159.75C158.954 169.78 158.31 170.424 158.31 171.219C158.31 172.014 158.954 172.658 159.75 172.658H176.049C176.845 172.658 177.489 172.014 177.489 171.219C177.489 170.424 176.845 169.78 176.049 169.78Z" fill="#E6E6E6"/>
<path d="M162.212 163.043H159.59C158.794 163.043 158.15 163.687 158.15 164.482C158.15 165.277 158.794 165.921 159.59 165.921H162.212C163.007 165.921 163.652 165.277 163.652 164.482C163.652 163.687 163.007 163.043 162.212 163.043Z" fill="#E6E6E6"/>
<path d="M192.207 163.043H189.584C188.789 163.043 188.144 163.687 188.144 164.482C188.144 165.277 188.789 165.921 189.584 165.921H192.207C193.002 165.921 193.646 165.277 193.646 164.482C193.646 163.687 193.002 163.043 192.207 163.043Z" fill="#E6E6E6"/>
<path d="M200.705 163.043H198.083C197.287 163.043 196.643 163.687 196.643 164.482C196.643 165.277 197.287 165.921 198.083 165.921H200.705C201.5 165.921 202.145 165.277 202.145 164.482C202.145 163.687 201.5 163.043 200.705 163.043Z" fill="#E6E6E6"/>
<path d="M184.048 163.283H167.748C166.953 163.283 166.308 163.927 166.308 164.722C166.308 165.517 166.953 166.161 167.748 166.161H184.048C184.843 166.161 185.488 165.517 185.488 164.722C185.488 163.927 184.843 163.283 184.048 163.283Z" fill="#E6E6E6"/>
<path d="M150.924 275.847C150.814 275.902 150.704 275.957 150.594 276.007C149.899 276.352 149.2 276.692 148.495 277.027C146.385 278.031 144.249 278.986 142.086 279.89C136.395 282.27 130.555 284.278 124.604 285.902C123.604 279.67 122.634 264.972 121.705 254.162C121.53 252.128 121.355 250.234 121.18 248.56C121.013 246.362 120.698 244.178 120.235 242.023C120.189 241.854 120.124 241.692 120.04 241.538C120.135 242.403 120.235 244.982 120.33 248.56C120.38 250.234 120.425 252.128 120.475 254.162C120.71 264.567 120.955 278.726 121.2 286.787C120.505 286.957 119.805 287.127 119.105 287.287C118.665 287.392 118.22 287.492 117.775 287.587C117.235 287.707 116.695 287.827 116.156 287.936C115.591 288.056 115.026 288.171 114.461 288.281C105.23 290.094 95.8437 291.005 86.4359 291C85.8111 291 85.1912 290.995 84.5663 290.99C84.3763 290.99 84.1864 290.985 83.9914 290.98C83.4415 290.97 82.8716 290.96 82.2917 290.945C71.1742 290.638 60.1295 289.046 49.3777 286.202L49.8126 254.162L49.8876 248.56L49.9176 246.436C49.67 247.119 49.5218 247.835 49.4777 248.56C49.3027 249.924 49.1227 251.858 48.9428 254.162C48.2579 263.038 47.553 277.356 46.8231 285.503C38.1797 283.044 31.8609 280.8 23.9623 276.852C23.6573 276.702 23.3474 276.547 23.0425 276.392C23.0975 276.007 23.1575 275.622 23.2125 275.227C24.1073 269.01 23.0525 260.919 24.0423 254.162C24.7972 248.95 25.577 243.942 26.3619 239.694C27.3117 234.582 28.2765 230.564 29.2313 228.609C30.3311 226.356 31.431 224.137 32.4958 222.013C32.9557 221.098 33.4073 220.2 33.8505 219.319C34.0905 218.844 34.3304 218.374 34.5654 217.915C35.6352 215.821 36.645 213.886 37.5698 212.172C38.2197 210.968 38.8196 209.878 39.3695 208.924C40.0144 207.799 40.5843 206.87 41.0542 206.165C44.5251 200.905 49.6895 196.989 55.6915 195.065L55.8415 195.025L55.9865 195.085L56.1514 195.16L65.6797 191.677L69.9339 181.437L91.785 180.092L95.3143 182.776L97.119 184.15L99.0436 185.615L102.583 188.309L103.588 188.618L105.083 189.078L115.306 192.217L115.411 192.172L115.561 192.212C121.022 193.959 125.803 197.366 129.238 201.957C129.578 202.397 129.893 202.852 130.198 203.311C131.028 204.541 132.148 206.485 133.467 208.924C134.012 209.928 134.587 211.018 135.192 212.172C135.557 212.867 138.706 222.692 141.771 232.728C144.635 242.123 147.425 251.704 147.79 254.162C147.855 254.617 147.925 255.077 147.99 255.532C148.405 258.375 148.815 261.239 149.209 264.033C149.794 268.176 150.364 272.174 150.909 275.747C150.914 275.782 150.919 275.812 150.924 275.847Z" fill="#3F3D56"/>
<path opacity="0.2" d="M127.767 239.671L123.52 223.283L119.769 237.424L127.767 239.671Z" fill="black"/>
<path d="M-16.0868 239.481C-15.8665 240.122 -15.4487 240.677 -14.8934 241.066C-14.338 241.455 -13.6737 241.658 -12.9958 241.646L0.247732 241.305C0.930624 241.292 1.59087 241.058 2.12979 240.638C2.66871 240.219 3.05734 239.636 3.23761 238.977L5.11172 218.943C5.77663 219.244 6.50047 219.393 7.23029 219.379C8.51082 219.346 9.72615 218.807 10.6089 217.879C11.4916 216.951 11.9695 215.711 11.9374 214.43C11.9052 213.15 11.3657 211.935 10.4375 211.053C9.50928 210.17 8.26843 209.693 6.98789 209.725C6.69619 209.724 6.40522 209.754 6.11995 209.815C5.80972 209.479 5.43264 209.213 5.01299 209.032C4.59333 208.851 4.14041 208.759 3.68338 208.764L-16.6882 209.29C-16.8572 209.296 -17.0253 209.317 -17.1907 209.352C-17.6374 209.436 -18.0611 209.613 -18.4333 209.874C-18.8055 210.135 -19.1175 210.472 -19.3483 210.864C-19.5792 211.255 -19.7234 211.691 -19.7715 212.143C-19.8195 212.595 -19.7702 213.052 -19.6268 213.483L-16.0868 239.481ZM5.49604 217.583L6.82961 212.809C6.98131 212.257 6.98483 211.676 6.83979 211.122C6.9045 211.122 6.96159 211.092 7.02629 211.091C7.94068 211.073 8.82526 211.417 9.48607 212.049C10.1469 212.681 10.53 213.549 10.5514 214.463C10.5728 215.378 10.2308 216.263 9.60029 216.925C8.96981 217.587 8.10232 217.973 7.18805 217.997C6.59691 218.015 6.01192 217.872 5.49604 217.583Z" fill="#2F2E41"/>
<path d="M-17.1907 209.352C-16.7567 211.833 -11.8771 213.577 -6.00979 213.274C-0.614409 213.026 3.79716 211.132 4.60539 208.887C4.30628 208.798 3.99523 208.757 3.68338 208.764L-16.6882 209.29C-16.8572 209.296 -17.0253 209.317 -17.1907 209.352Z" fill="#3F3D56"/>
<path d="M368.503 276.391C368.198 276.546 367.888 276.701 367.583 276.851C359.685 280.799 353.366 283.043 344.722 285.501C343.993 277.355 343.288 263.037 342.603 254.161C342.423 251.857 342.243 249.923 342.068 248.559C342.024 247.834 341.876 247.118 341.628 246.435L341.658 248.559L341.733 254.161L342.168 286.201C331.416 289.045 320.371 290.637 309.254 290.944C308.674 290.959 308.104 290.969 307.554 290.979C307.359 290.984 307.169 290.989 306.979 290.989C306.354 290.994 305.734 290.999 305.11 290.999C293.394 291.008 281.72 289.593 270.346 286.786C270.591 278.725 270.836 264.566 271.071 254.161C271.121 252.127 271.166 250.233 271.216 248.559C271.311 244.981 271.411 242.402 271.506 241.537C271.422 241.69 271.356 241.853 271.311 242.022C270.848 244.177 270.532 246.361 270.366 248.559C270.191 250.233 270.016 252.127 269.841 254.161C268.911 264.971 267.941 279.669 266.942 285.901C260.99 284.277 255.151 282.269 249.46 279.889C246.46 278.64 243.514 277.292 240.621 275.846C241.171 272.248 241.746 268.215 242.336 264.032C242.796 260.788 243.271 257.455 243.756 254.161C244.506 249.074 269.981 194.135 275.985 192.211L276.135 192.171L276.24 192.216L286.463 189.077L287.958 188.617L288.963 188.307L292.502 185.614L294.427 184.149L296.231 182.775L299.761 180.091L321.612 181.436L325.866 191.676L335.394 195.159L335.559 195.084L335.704 195.024L335.854 195.064C341.856 196.988 347.02 200.904 350.491 206.164C350.961 206.869 351.531 207.798 352.176 208.923C352.726 209.877 353.326 210.967 353.976 212.171C354.901 213.885 355.91 215.819 356.98 217.913C357.215 218.373 357.455 218.843 357.695 219.318C358.14 220.197 358.592 221.095 359.05 222.011C360.115 224.135 361.214 226.354 362.314 228.608C363.269 230.562 364.234 234.581 365.184 239.693C365.969 243.941 366.748 248.949 367.503 254.161C368.493 260.918 367.438 269.009 368.333 275.226C368.388 275.621 368.448 276.006 368.503 276.391Z" fill="#3F3D56"/>
<path d="M304.417 176.415C318.453 176.415 329.831 165.041 329.831 151.009C329.831 136.978 318.453 125.603 304.417 125.603C290.382 125.603 279.004 136.978 279.004 151.009C279.004 165.041 290.382 176.415 304.417 176.415Z" fill="#FFB6B6"/>
<path opacity="0.2" d="M263.777 239.671L268.025 223.283L271.776 237.424L263.777 239.671Z" fill="black"/>
<path d="M376.812 228.993C375.292 249.923 376.867 259.139 368.478 276.396C360.846 280.13 352.896 283.178 344.722 285.501C343.873 285.741 343.021 285.975 342.168 286.201C331.416 289.045 320.371 290.637 309.254 290.944C308.674 290.959 308.104 290.969 307.554 290.979C307.359 290.984 307.169 290.989 306.979 290.989C306.354 290.994 305.735 290.999 305.11 290.999C293.394 291.008 281.72 289.593 270.346 286.786C269.206 286.506 268.071 286.211 266.942 285.901C260.99 284.277 255.151 282.269 249.46 279.889C246.46 278.64 243.514 277.292 240.621 275.846C239.967 275.516 239.312 275.186 238.667 274.847C235.352 269.019 233.468 261.933 233.428 253.417C235.722 238.744 371.743 216.339 376.812 228.993Z" fill="#2F2E41"/>
<path opacity="0.2" d="M376.808 232.578C376.885 231.282 376.972 229.943 377.073 228.55C372.004 215.896 235.984 238.3 233.689 252.973C233.696 254.318 233.753 255.624 233.85 256.898C239.407 242.416 368.628 221.122 376.808 232.578Z" fill="black"/>
<path d="M230.045 229.98L241.21 224.4L231.906 199.286L229.454 186.621C229.135 184.976 228.39 183.443 227.293 182.175C226.196 180.908 224.786 179.95 223.203 179.399C221.62 178.847 219.92 178.72 218.273 179.031C216.625 179.342 215.088 180.079 213.816 181.17C211.929 182.786 210.745 185.072 210.513 187.545C210.28 190.017 211.018 192.484 212.569 194.423L221.671 205.797L230.045 229.98Z" fill="#FFB6B6"/>
<path d="M241.21 219.749L226.323 227.19L237.62 262.578C238.432 265.119 239.886 267.407 241.842 269.221C243.799 271.035 246.191 272.313 248.786 272.931C251.987 273.693 255.347 273.416 258.379 272.14C261.412 270.864 263.959 268.656 265.652 265.836L295.609 214.503C297.732 210.966 298.387 206.739 297.435 202.725C296.482 198.712 293.998 195.229 290.512 193.022C288.637 191.835 286.533 191.056 284.337 190.736C282.141 190.415 279.903 190.561 277.767 191.163C275.631 191.764 273.645 192.809 271.94 194.229C270.234 195.648 268.847 197.411 267.868 199.402L249.583 238.352L241.21 219.749Z" fill="#3F3D56"/>
<path d="M80.7346 174.662C96.1779 174.662 108.697 162.147 108.697 146.708C108.697 131.269 96.1779 118.754 80.7346 118.754C65.2914 118.754 52.7722 131.269 52.7722 146.708C52.7722 162.147 65.2914 174.662 80.7346 174.662Z" fill="#A0616A"/>
<path d="M53.1081 127.444C55.3817 124.381 58.6495 122.203 61.149 119.321C62.5205 117.739 63.6593 115.947 65.2011 114.532C68.0658 111.901 72.072 110.824 75.9593 110.69C80.2195 110.58 84.4457 111.475 88.2957 113.302C92.1458 115.128 95.5116 117.835 98.1208 121.204C100.153 120.013 102.185 118.822 104.217 117.631C105.019 119.743 105.822 121.855 106.625 123.968C107.284 123.395 108.124 123.074 108.997 123.062C109.869 123.05 110.718 123.347 111.393 123.901C112.068 124.454 112.524 125.229 112.682 126.087C112.84 126.946 112.689 127.832 112.256 128.589C112.739 127.096 114.955 126.779 116.176 127.766C117.398 128.752 117.725 130.508 117.525 132.066C117.275 133.774 116.52 135.369 115.356 136.645C114.192 137.921 112.673 138.819 110.994 139.225C108.343 139.816 105.257 139.195 103.134 140.891C101.433 142.25 100.919 144.725 99.1829 146.039C97.0433 147.658 94.0191 146.909 91.3595 147.267C86.7063 147.893 83.0218 152.651 83.581 157.312C83.1601 155.841 82.7176 154.328 81.7621 153.133C80.8065 151.939 79.1972 151.131 77.7316 151.57C75.3092 152.296 74.9129 155.597 75.5 158.056C77.0571 164.578 82.9583 175.12 82.9583 175.12C75.2958 178.142 66.1669 175.285 60.2548 169.551C54.3428 163.817 51.2636 155.698 49.9223 147.573C48.785 140.684 48.9461 133.052 53.1081 127.444Z" fill="#2F2E41"/>
<path d="M336.265 165.015C341.585 152.821 338.571 141.601 332.086 135.648V135.643C329.537 129.931 326.147 125.523 322.268 124.489C320.393 123.284 318.574 121.87 316.554 121.15C315.613 120.798 314.611 120.64 313.607 120.686C312.604 120.731 311.62 120.979 310.715 121.415L309.685 121.14C308.81 118.906 307.786 118.861 306.646 120.331C302.257 118.287 298.302 117.372 294.783 117.372C283.305 117.372 276.516 127.087 274.717 138.832L284.31 141.386L287.644 136.073L286.104 141.866L291.399 143.27C299.457 153.76 289.814 177.958 277.591 191.422C280.501 190.617 283.398 189.938 286.284 189.383L296.773 174.01L290.274 188.004C293.648 187.509 297.952 187.984 302.656 188.938C304.241 186.869 305.076 184.111 304.256 181.652C305.597 184.245 306.521 187.033 306.996 189.913C316.924 192.337 330.466 193.581 337.765 194.501C343.662 192.576 343.678 170.842 336.265 165.015Z" fill="#2F2E41"/>
<path d="M339.726 123.538C343.623 132.261 335.76 136.013 328.558 135.907C322.049 135.811 316.518 131.24 316.186 124.741C316.026 121.62 317.113 118.564 319.208 116.245C321.302 113.925 324.233 112.532 327.354 112.373C333.855 112.041 337.072 117.597 339.726 123.538Z" fill="#2F2E41"/>
<path d="M158.958 265.53L152.539 254.828L173.881 238.641L182.754 229.275C183.907 228.058 185.359 227.165 186.965 226.685C188.571 226.205 190.276 226.155 191.907 226.54C193.539 226.925 195.041 227.731 196.264 228.877C197.486 230.024 198.386 231.472 198.874 233.075C199.596 235.451 199.367 238.015 198.234 240.226C197.102 242.436 195.155 244.121 192.804 244.923L179.015 249.629L158.958 265.53Z" fill="#A0616A"/>
<path d="M163.597 265.177L153.604 273.503L150.909 275.747L150.594 276.007C149.899 276.352 149.199 276.692 148.495 277.027C146.385 278.031 144.249 278.986 142.086 279.89C136.395 282.27 130.555 284.278 124.604 285.902C123.474 286.212 122.339 286.507 121.2 286.787C120.505 286.957 119.805 287.127 119.105 287.287C118.665 287.392 118.22 287.492 117.775 287.587C117.235 287.707 116.695 287.827 116.155 287.936C115.591 288.056 115.026 288.171 114.461 288.281C112.941 286.835 111.731 285.096 110.904 283.168C110.077 281.24 109.651 279.164 109.652 277.067C109.652 276.932 109.652 276.792 109.657 276.652L111.261 235.506L111.971 217.27C112.081 213.146 113.799 209.228 116.759 206.354C119.719 203.479 123.687 201.876 127.813 201.887C128.293 201.887 128.768 201.912 129.238 201.957C129.578 202.397 129.893 202.852 130.198 203.311C131.028 204.541 132.148 206.485 133.467 208.924C134.012 209.928 134.587 211.018 135.192 212.172C135.557 212.867 138.706 222.692 141.771 232.728L140.421 243.208L137.981 262.099L147.99 255.532L155.038 250.904L155.873 252.298L158.048 255.927L162.247 262.923L163.597 265.177Z" fill="#3F3D56"/>
<path d="M158.118 253.418C158.113 254.267 158.093 255.102 158.048 255.927C157.944 258.201 157.68 260.466 157.258 262.703C156.568 266.461 155.337 270.099 153.604 273.503C153.374 273.958 153.129 274.408 152.879 274.848C152.234 275.188 151.579 275.517 150.924 275.847C150.814 275.902 150.704 275.957 150.594 276.007C147.81 277.391 144.974 278.686 142.086 279.89C136.395 282.27 130.555 284.278 124.604 285.902C123.474 286.212 122.339 286.507 121.2 286.787C118.975 287.337 116.729 287.835 114.461 288.281C105.229 290.094 95.8436 291.005 86.4358 291C85.8109 291 85.1911 290.995 84.5662 290.99C84.3762 290.99 84.1863 290.985 83.9913 290.98C83.4414 290.97 82.8715 290.96 82.2916 290.945C71.1741 290.638 60.1294 289.046 49.3776 286.202C48.5227 285.977 47.6712 285.744 46.823 285.503C38.6497 283.179 30.6997 280.131 23.0674 276.397C14.6789 259.14 16.2536 249.924 14.7339 228.994C17.8533 221.203 70.6287 226.705 111.261 235.506C122.289 237.895 132.417 240.529 140.421 243.208C148.689 245.971 154.683 248.78 157.033 251.419C157.582 251.965 157.959 252.66 158.118 253.418Z" fill="#2F2E41"/>
<path opacity="0.2" d="M14.7368 232.578C14.6592 231.282 14.5724 229.943 14.4712 228.55C19.5403 215.896 155.561 238.3 157.855 252.973C157.849 254.318 157.791 255.624 157.694 256.898C152.138 242.416 22.9166 221.122 14.7368 232.578Z" fill="black"/>
<path d="M184.786 55.0456H85.1843C84.6559 55.045 84.1494 54.8348 83.7758 54.4611C83.4022 54.0875 83.192 53.5809 83.1914 53.0525V34.2774H83.9886V53.0525C83.9889 53.3695 84.115 53.6735 84.3392 53.8977C84.5633 54.1219 84.8673 54.248 85.1843 54.2483H184.786C185.103 54.248 185.407 54.1219 185.631 53.8977C185.855 53.6735 185.981 53.3695 185.982 53.0525V34.1462H186.779V53.0525C186.778 53.5809 186.568 54.0875 186.195 54.4611C185.821 54.8348 185.314 55.045 184.786 55.0456Z" fill="#3F3D56"/>
<path d="M220.892 33.8788H-13.1606V34.676H220.892V33.8788Z" fill="#3F3D56"/>
<path d="M56.5297 41.0722C60.3163 41.0722 63.386 38.0021 63.386 34.2151C63.386 30.428 60.3163 27.358 56.5297 27.358C52.743 27.358 49.6733 30.428 49.6733 34.2151C49.6733 38.0021 52.743 41.0722 56.5297 41.0722Z" fill="#00B0FF"/>
<path d="M103.814 61.2268C107.6 61.2268 110.67 58.1568 110.67 54.3698C110.67 50.5827 107.6 47.5127 103.814 47.5127C100.027 47.5127 96.9575 50.5827 96.9575 54.3698C96.9575 58.1568 100.027 61.2268 103.814 61.2268Z" fill="#3F3D56"/>
<path d="M139.76 61.2268C143.547 61.2268 146.617 58.1568 146.617 54.3698C146.617 50.5827 143.547 47.5127 139.76 47.5127C135.974 47.5127 132.904 50.5827 132.904 54.3698C132.904 58.1568 135.974 61.2268 139.76 61.2268Z" fill="#CCCCCC"/>
<path d="M122.341 41.0722C126.128 41.0722 129.198 38.0021 129.198 34.2151C129.198 30.428 126.128 27.358 122.341 27.358C118.555 27.358 115.485 30.428 115.485 34.2151C115.485 38.0021 118.555 41.0722 122.341 41.0722Z" fill="#00B0FF"/>
<path d="M219.953 41.0722C223.739 41.0722 226.809 38.0021 226.809 34.2151C226.809 30.428 223.739 27.358 219.953 27.358C216.166 27.358 213.096 30.428 213.096 34.2151C213.096 38.0021 216.166 41.0722 219.953 41.0722Z" fill="#00B0FF"/>
<path d="M186.38 41.0722C190.167 41.0722 193.237 38.0021 193.237 34.2151C193.237 30.428 190.167 27.358 186.38 27.358C182.594 27.358 179.524 30.428 179.524 34.2151C179.524 38.0021 182.594 41.0722 186.38 41.0722Z" fill="#00B0FF"/>
<path d="M8.11757 34.6759C8.01186 34.6759 7.91049 34.6339 7.83574 34.5592C7.76099 34.4844 7.719 34.383 7.71899 34.2773V14.6005C7.7196 14.0721 7.92978 13.5655 8.30338 13.1919C8.67699 12.8182 9.18352 12.608 9.71188 12.6074H29.1126C29.2183 12.6074 29.3197 12.6494 29.3944 12.7242C29.4692 12.7989 29.5111 12.9003 29.5111 13.006C29.5111 13.1118 29.4692 13.2132 29.3944 13.2879C29.3197 13.3627 29.2183 13.4047 29.1126 13.4047H9.71188C9.39486 13.405 9.09092 13.5311 8.86675 13.7553C8.64259 13.9795 8.5165 14.2835 8.51615 14.6005V34.2773C8.51614 34.383 8.47415 34.4844 8.3994 34.5592C8.32466 34.6339 8.22328 34.6759 8.11757 34.6759Z" fill="#3F3D56"/>
<path d="M30.0243 19.7141C33.8109 19.7141 36.8806 16.6441 36.8806 12.8571C36.8806 9.07001 33.8109 6 30.0243 6C26.2377 6 23.168 9.07001 23.168 12.8571C23.168 16.6441 26.2377 19.7141 30.0243 19.7141Z" fill="#E6E6E6"/>
<path d="M161.57 34.2773H160.773V14.6005C160.774 14.0721 160.984 13.5655 161.357 13.1919C161.731 12.8182 162.237 12.608 162.766 12.6074H182.167V13.4047H162.766C162.449 13.405 162.145 13.5311 161.921 13.7553C161.697 13.9795 161.57 14.2835 161.57 14.6005V34.2773Z" fill="#3F3D56"/>
<path d="M183.078 19.7141C186.865 19.7141 189.934 16.6441 189.934 12.8571C189.934 9.07001 186.865 6 183.078 6C179.291 6 176.222 9.07001 176.222 12.8571C176.222 16.6441 179.291 19.7141 183.078 19.7141Z" fill="#E6E6E6"/>
</g>
</g>
<defs>
<clipPath id="clip0_6_192">
<rect width="555" height="289" fill="white"/>
</clipPath>
<clipPath id="clip1_6_192">
<rect width="248" height="196" fill="white" transform="translate(318 93)"/>
</clipPath>
<clipPath id="clip2_6_192">
<rect width="440" height="288" fill="white" transform="translate(-24 3)"/>
</clipPath>
</defs>
</svg>
