<svg width="580" height="90" viewBox="0 0 580 90" fill="none" xmlns="http://www.w3.org/2000/svg">
<g clip-path="url(#clip0_6_3)">
<path d="M127.47 89.0565C151.705 88.3415 170.772 68.1157 170.057 43.8809C169.341 19.6462 149.116 0.579659 124.881 1.2947C100.646 2.00973 81.5797 22.2355 82.2947 46.4703C83.0097 70.705 103.236 89.7715 127.47 89.0565Z" fill="white"/>
<path d="M154.15 23.0494H97.97C97.3591 23.0521 96.7741 23.2966 96.343 23.7295C95.912 24.1624 95.67 24.7485 95.67 25.3594V34.5594C95.67 35.1694 95.9123 35.7544 96.3436 36.1858C96.775 36.6171 97.36 36.8594 97.97 36.8594H154.15C154.76 36.8594 155.345 36.6171 155.776 36.1858C156.208 35.7544 156.45 35.1694 156.45 34.5594V25.3594C156.45 24.7485 156.208 24.1624 155.777 23.7295C155.346 23.2966 154.761 23.0521 154.15 23.0494ZM136.94 31.8794H133.63V28.0394H136.94V31.8794ZM143.7 32.0694H139.14V28.2794H143.7V32.0694ZM152.04 32.0694H145.75V28.2794H152.04V32.0694Z" fill="#375577"/>
<path d="M154.15 38.9694H97.97C97.6671 38.9694 97.3672 39.0292 97.0875 39.1455C96.8078 39.2617 96.5538 39.432 96.3401 39.6466C96.1264 39.8612 95.9572 40.116 95.8422 40.3962C95.7272 40.6764 95.6687 40.9765 95.67 41.2794V50.4794C95.67 51.0894 95.9123 51.6744 96.3436 52.1058C96.775 52.5371 97.36 52.7794 97.97 52.7794H154.15C154.76 52.7794 155.345 52.5371 155.776 52.1058C156.208 51.6744 156.45 51.0894 156.45 50.4794V41.2794C156.451 40.9765 156.393 40.6764 156.278 40.3962C156.163 40.116 155.994 39.8612 155.78 39.6466C155.566 39.432 155.312 39.2617 155.032 39.1455C154.753 39.0292 154.453 38.9694 154.15 38.9694V38.9694ZM136.94 47.7894H133.63V43.9594H136.94V47.7894ZM143.7 47.9794H139.14V44.1494H143.7V47.9794ZM152.04 47.9794H145.75V44.1494H152.04V47.9794Z" fill="#375577"/>
<path d="M154.15 54.8894H97.97C97.36 54.8894 96.775 55.1317 96.3436 55.5631C95.9123 55.9944 95.67 56.5794 95.67 57.1894V66.3894C95.67 66.9994 95.9123 67.5844 96.3436 68.0157C96.775 68.4471 97.36 68.6894 97.97 68.6894H154.15C154.76 68.6894 155.345 68.4471 155.776 68.0157C156.208 67.5844 156.45 66.9994 156.45 66.3894V57.1894C156.45 56.5794 156.208 55.9944 155.776 55.5631C155.345 55.1317 154.76 54.8894 154.15 54.8894ZM136.94 63.7094H133.63V59.8694H136.94V63.7094ZM143.7 63.8994H139.14V60.0594H143.7V63.8994ZM152.04 63.8994H145.75V60.0594H152.04V63.8994Z" fill="#375577"/>
<path d="M126.17 3.27945C134.457 3.27945 142.558 5.73684 149.448 10.3409C156.339 14.9449 161.709 21.4888 164.881 29.145C168.052 36.8012 168.882 45.2259 167.265 53.3537C165.648 61.4815 161.658 68.9474 155.798 74.8072C149.938 80.667 142.472 84.6576 134.344 86.2744C126.216 87.8911 117.792 87.0613 110.136 83.89C102.479 80.7187 95.9354 75.3483 91.3314 68.4578C86.7274 61.5674 84.27 53.4665 84.27 45.1795C84.2832 34.0709 88.7019 23.4212 96.5568 15.5663C104.412 7.71138 115.061 3.29268 126.17 3.27945M126.17 1.27945C117.487 1.27945 109 3.85414 101.78 8.67793C94.5611 13.5017 88.9344 20.358 85.6117 28.3796C82.289 36.4013 81.4196 45.2281 83.1135 53.7439C84.8074 62.2597 88.9885 70.0819 95.128 76.2214C101.268 82.361 109.09 86.542 117.606 88.2359C126.121 89.9298 134.948 89.0604 142.97 85.7378C150.991 82.4151 157.848 76.7883 162.672 69.569C167.495 62.3497 170.07 53.8621 170.07 45.1795C170.067 33.5373 165.441 22.3727 157.209 14.1404C148.977 5.90812 137.812 1.2821 126.17 1.27945V1.27945Z" fill="white"/>
<path d="M208.051 69.0919C219.989 69.0919 227.051 63.3732 227.051 54.3732V54.3419C227.051 47.1232 222.614 43.2482 213.051 41.4044L208.426 40.5294C203.582 39.6232 201.457 38.3419 201.457 35.9044V35.8732C201.457 33.2794 203.832 31.3732 208.051 31.3732C212.176 31.3732 215.082 33.2169 215.426 36.1857L215.457 36.5294H226.114L226.082 35.8732C225.676 27.6857 219.27 22.3732 207.957 22.3732C197.614 22.3732 190.082 27.9669 190.082 36.6544V36.6857C190.082 43.5919 194.801 47.9982 203.739 49.6544L208.364 50.5294C213.645 51.5607 215.645 52.7482 215.645 55.3107V55.3419C215.645 58.1544 212.832 60.0919 208.27 60.0919C203.864 60.0919 200.489 58.1857 199.926 55.2794L199.864 54.9357H189.207L189.239 55.4982C189.739 64.1232 196.832 69.0919 208.051 69.0919ZM247.989 68.9982C258.707 68.9982 265.395 62.5294 265.395 51.2794V51.2169C265.395 40.1232 258.582 33.5294 247.989 33.5294C237.426 33.5294 230.582 40.1857 230.582 51.2169V51.2794C230.582 62.4982 237.207 68.9982 247.989 68.9982ZM248.02 60.5919C244.176 60.5919 241.832 57.2794 241.832 51.2794V51.2169C241.832 45.3419 244.239 41.9357 247.989 41.9357C251.739 41.9357 254.176 45.3419 254.176 51.2169V51.2794C254.176 57.2482 251.801 60.5919 248.02 60.5919ZM281.239 68.9982C286.395 68.9982 289.864 66.5607 291.582 62.2794H291.801V68.2794H302.864V34.2482H291.801V53.5607C291.801 57.3419 289.582 59.9982 286.082 59.9982C282.426 59.9982 280.614 57.6857 280.614 53.7794V34.2482H269.52V56.1544C269.52 64.2169 273.77 68.9982 281.239 68.9982ZM308.239 68.2794H319.332V50.2169C319.332 45.3732 321.864 42.8107 326.52 42.8107C327.832 42.8107 329.114 43.0607 330.051 43.4357V33.9669C329.207 33.6857 328.239 33.5294 327.176 33.5294C323.176 33.5294 320.489 35.9669 319.551 40.2794H319.332V34.2482H308.239V68.2794ZM348.832 68.9982C358.645 68.9982 364.614 63.0607 364.832 55.1544V54.9357H354.676L354.614 55.2482C354.176 58.4982 352.207 60.5919 348.957 60.5919C345.02 60.5919 342.77 57.2794 342.77 51.2794V51.2482C342.77 45.3419 345.082 41.9357 348.926 41.9357C352.176 41.9357 354.176 44.1232 354.614 47.2794L354.645 47.5919H364.832L364.801 47.3732C364.645 39.2794 358.332 33.5294 348.739 33.5294C338.145 33.5294 331.52 40.2482 331.52 51.2169V51.2482C331.52 62.2794 338.114 68.9982 348.832 68.9982ZM385.176 68.9982C396.02 68.9982 400.301 62.6232 401.332 57.9044L401.426 57.5294H391.426L391.395 57.6857C390.895 59.0919 388.957 61.1232 385.395 61.1232C381.364 61.1232 378.864 58.4044 378.739 53.8107H401.614V50.5607C401.614 40.2482 395.082 33.5294 384.801 33.5294C374.457 33.5294 367.895 40.3107 367.895 51.2482V51.2794C367.895 62.2794 374.426 68.9982 385.176 68.9982ZM385.051 41.4044C388.301 41.4044 390.614 43.4669 391.176 47.2794H378.895C379.457 43.5294 381.801 41.4044 385.051 41.4044ZM429.582 68.2794H441.02V32.4044H453.457V23.1857H417.145V32.4044H429.582V68.2794ZM466.989 68.9982C477.832 68.9982 482.114 62.6232 483.145 57.9044L483.239 57.5294H473.239L473.207 57.6857C472.707 59.0919 470.77 61.1232 467.207 61.1232C463.176 61.1232 460.676 58.4044 460.551 53.8107H483.426V50.5607C483.426 40.2482 476.895 33.5294 466.614 33.5294C456.27 33.5294 449.707 40.3107 449.707 51.2482V51.2794C449.707 62.2794 456.239 68.9982 466.989 68.9982ZM466.864 41.4044C470.114 41.4044 472.426 43.4669 472.989 47.2794H460.707C461.27 43.5294 463.614 41.4044 466.864 41.4044ZM504.02 68.9982C513.832 68.9982 519.801 63.0607 520.02 55.1544V54.9357H509.864L509.801 55.2482C509.364 58.4982 507.395 60.5919 504.145 60.5919C500.207 60.5919 497.957 57.2794 497.957 51.2794V51.2482C497.957 45.3419 500.27 41.9357 504.114 41.9357C507.364 41.9357 509.364 44.1232 509.801 47.2794L509.832 47.5919H520.02L519.989 47.3732C519.832 39.2794 513.52 33.5294 503.926 33.5294C493.332 33.5294 486.707 40.2482 486.707 51.2169V51.2482C486.707 62.2794 493.301 68.9982 504.02 68.9982ZM524.301 68.2794H535.395V48.9982C535.395 45.2482 537.582 42.5607 541.082 42.5607C544.739 42.5607 546.676 44.9982 546.676 49.0294V68.2794H557.77V46.6544C557.77 38.4669 553.395 33.5294 545.957 33.5294C540.832 33.5294 537.301 35.9357 535.614 40.3732H535.395V23.1857H524.301V68.2794Z" fill="white"/>
</g>
<defs>
<clipPath id="clip0_6_3">
<rect width="580" height="90" fill="white"/>
</clipPath>
</defs>
</svg>
