<svg width="91" height="91" viewBox="0 0 91 91" fill="none" xmlns="http://www.w3.org/2000/svg">
<g clip-path="url(#clip0_2_27)">
<path d="M46.4703 89.0565C70.705 88.3415 89.7715 68.1157 89.0565 43.8809C88.3415 19.6462 68.1157 0.579652 43.8809 1.29469C19.6462 2.00973 0.579652 22.2355 1.29469 46.4703C2.00973 70.705 22.2355 89.7715 46.4703 89.0565Z" fill="white"/>
<path d="M73.15 23.0494H16.97C16.3591 23.052 15.7741 23.2966 15.3431 23.7295C14.912 24.1624 14.67 24.7485 14.67 25.3594V34.5594C14.67 35.1694 14.9123 35.7544 15.3437 36.1857C15.775 36.6171 16.36 36.8594 16.97 36.8594H73.15C73.76 36.8594 74.345 36.6171 74.7764 36.1857C75.2077 35.7544 75.45 35.1694 75.45 34.5594V25.3594C75.45 24.7485 75.208 24.1624 74.777 23.7295C74.3459 23.2966 73.7609 23.052 73.15 23.0494ZM55.94 31.8794H52.63V28.0394H55.94V31.8794ZM62.7 32.0694H58.14V28.2794H62.7V32.0694ZM71.04 32.0694H64.75V28.2794H71.04V32.0694Z" fill="#375577"/>
<path d="M73.15 38.9694H16.97C16.6671 38.9694 16.3672 39.0292 16.0875 39.1454C15.8078 39.2616 15.5538 39.4319 15.3401 39.6466C15.1264 39.8612 14.9572 40.1159 14.8422 40.3961C14.7272 40.6763 14.6687 40.9765 14.67 41.2794V50.4794C14.67 51.0894 14.9123 51.6744 15.3437 52.1057C15.775 52.5371 16.36 52.7794 16.97 52.7794H73.15C73.76 52.7794 74.345 52.5371 74.7764 52.1057C75.2077 51.6744 75.45 51.0894 75.45 50.4794V41.2794C75.4513 40.9765 75.3928 40.6763 75.2778 40.3961C75.1628 40.1159 74.9936 39.8612 74.7799 39.6466C74.5662 39.4319 74.3122 39.2616 74.0325 39.1454C73.7528 39.0292 73.4529 38.9694 73.15 38.9694V38.9694ZM55.94 47.7894H52.63V43.9594H55.94V47.7894ZM62.7 47.9794H58.14V44.1494H62.7V47.9794ZM71.04 47.9794H64.75V44.1494H71.04V47.9794Z" fill="#375577"/>
<path d="M73.15 54.8894H16.97C16.36 54.8894 15.775 55.1317 15.3437 55.563C14.9123 55.9944 14.67 56.5794 14.67 57.1894V66.3894C14.67 66.9994 14.9123 67.5844 15.3437 68.0157C15.775 68.4471 16.36 68.6894 16.97 68.6894H73.15C73.76 68.6894 74.345 68.4471 74.7764 68.0157C75.2077 67.5844 75.45 66.9994 75.45 66.3894V57.1894C75.45 56.5794 75.2077 55.9944 74.7764 55.563C74.345 55.1317 73.76 54.8894 73.15 54.8894ZM55.94 63.7094H52.63V59.8694H55.94V63.7094ZM62.7 63.8994H58.14V60.0594H62.7V63.8994ZM71.04 63.8994H64.75V60.0594H71.04V63.8994Z" fill="#375577"/>
<path d="M45.17 3.27938C53.457 3.27938 61.558 5.73677 68.4484 10.3408C75.3388 14.9448 80.7092 21.4887 83.8806 29.1449C87.0519 36.8012 87.8816 45.2259 86.2649 53.3537C84.6482 61.4815 80.6576 68.9473 74.7978 74.8072C68.938 80.667 61.4721 84.6576 53.3443 86.2743C45.2165 87.891 36.7918 87.0612 29.1356 83.8899C21.4793 80.7186 14.9355 75.3482 10.3314 68.4578C5.72739 61.5674 3.27 53.4664 3.27 45.1794C3.28323 34.0709 7.70193 23.4211 15.5568 15.5662C23.4117 7.71131 34.0615 3.29261 45.17 3.27938M45.17 1.27938C36.4874 1.27938 27.9998 3.85407 20.7805 8.67787C13.5612 13.5017 7.93438 20.3579 4.61169 28.3796C1.289 36.4013 0.419636 45.2281 2.11353 53.7438C3.80742 62.2596 7.98849 70.0818 14.128 76.2214C20.2675 82.3609 28.0898 86.542 36.6055 88.2359C45.1213 89.9297 53.9481 89.0604 61.9698 85.7377C69.9915 82.415 76.8477 76.7882 81.6715 69.5689C86.4953 62.3496 89.07 53.862 89.07 45.1794C89.0674 33.5372 84.4413 22.3726 76.2091 14.1403C67.9768 5.90805 56.8122 1.28203 45.17 1.27938V1.27938Z" fill="white"/>
</g>
<defs>
<clipPath id="clip0_2_27">
<rect width="90.35" height="90.35" fill="white"/>
</clipPath>
</defs>
</svg>
